<svg xmlns="http://www.w3.org/2000/svg" width="451.718" height="26.437" viewBox="0 0 451.718 26.437">
  <defs>
    <style>
      .cls-1 {
        fill: #121212;
        fill-rule: evenodd;
      }
    </style>
  </defs>
  <path id="logo.r51_2x.svg" data-name="logo.r51@2x.svg" class="cls-1" d="M184.2,232.757v-1h9.51v1H184.2ZM12.536,223.4H12.468L8.344,233.952h8.112Zm0.631-4.425h1.261l7.7,20.553A10.862,10.862,0,0,0,23.46,242.1a2.248,2.248,0,0,0,1.755,1q1.213,0.069,1.108.326a0.351,0.351,0,0,1-.1.343,1.312,1.312,0,0,1-.665.1q-2.131-.069-4.261-0.1-2.131.034-4.26,0.1-0.937.036-.9-0.446-0.068-.292,1.193-0.326,1.636-.07,1.6-1.447a10.17,10.17,0,0,0-.307-1.729,21.08,21.08,0,0,0-.784-2.241l-1.006-2.752H7.969l-1.96,5.5a3.086,3.086,0,0,0-.17,1.077,1.205,1.205,0,0,0,.63,1.164,3.021,3.021,0,0,0,1.364.424q0.971,0.1.9,0.326a0.351,0.351,0,0,1-.1.343,1.116,1.116,0,0,1-.6.1q-1.637-.069-3.272-0.1-1.653.034-3.289,0.1-0.666,0-.63-0.446-0.071-.224.733-0.326a3.644,3.644,0,0,0,1.125-.318,3.2,3.2,0,0,0,1.006-.759A14.019,14.019,0,0,0,5.873,237.9Zm20.5,10.272a2,2,0,0,0-.418-1.079,2.433,2.433,0,0,0-1.42-.772q-0.86-.1-0.836-0.38c0-.164.115-0.237,0.346-0.221q0.561,0.026,2.007.074,1.027,0,2.054-.074l10.438,13.471h0.048V230a3.877,3.877,0,0,0-.334-1.947,1.784,1.784,0,0,0-1.23-.58,2.439,2.439,0,0,1-.68-0.2,0.188,0.188,0,0,1-.143-0.209q0-.27.466-0.27,1.146,0.026,2.292.074,1.146-.024,2.3-0.074,0.465,0,.466.271a0.239,0.239,0,0,1-.108.209,2.606,2.606,0,0,1-.73.2,1.625,1.625,0,0,0-1.172.578A3.368,3.368,0,0,0,46.623,230v14.227H45.811L34.451,229.5H34.4v11.134a3.263,3.263,0,0,0,.394,1.9,1.548,1.548,0,0,0,1.17.628,3.955,3.955,0,0,1,.728.173,0.264,0.264,0,0,1,.107.234q0,0.271-.466.272-1.16-.048-2.307-0.072-1.148.024-2.3,0.072c-0.311,0-.466-0.091-0.466-0.271a0.2,0.2,0,0,1,.143-0.233,3.769,3.769,0,0,1,.68-0.172,1.7,1.7,0,0,0,1.229-.627,3.608,3.608,0,0,0,.346-1.892v-11.4Zm23.39,0.742a4.6,4.6,0,0,0-.335-2.073,1.3,1.3,0,0,0-1.209-.58,2.258,2.258,0,0,1-.707-0.1,0.143,0.143,0,0,1-.144-0.181q0-.264.454-0.264,1.4,0.026,3.216.074,1.853-.024,3.694-0.074a9.7,9.7,0,0,1,6.515,2.168,8.151,8.151,0,0,1,2.594,6.43,9.047,9.047,0,0,1-1.913,6.012q-1.984,2.389-6.443,2.439-1.973-.049-4.447-0.073-1.817.024-3.216,0.073-0.454,0-.454-0.266a0.2,0.2,0,0,1,.144-0.227,3.015,3.015,0,0,1,.707-0.048,1.4,1.4,0,0,0,1.209-.629,4.451,4.451,0,0,0,.335-2.024V229.989Zm11.05,5.836a14.747,14.747,0,0,0-.582-4.393,5.81,5.81,0,0,0-1.555-2.554,5.028,5.028,0,0,0-2.018-1.221,9.7,9.7,0,0,0-2.149-.247h-1.14a1.422,1.422,0,0,0-.8.148,0.823,0.823,0,0,0-.2.629V239.9q0,0.321.024,0.679c0,0.239.008,0.456,0.024,0.654a3.3,3.3,0,0,0,.131.555,1.689,1.689,0,0,0,.214.506,1.806,1.806,0,0,0,.926.654,4.169,4.169,0,0,0,1.721.284,5.356,5.356,0,0,0,2.9-.679,4.085,4.085,0,0,0,1.626-1.7,8.24,8.24,0,0,0,.736-2.394,24.026,24.026,0,0,0,.142-2.628h0Zm11.047-5.832a4.613,4.613,0,0,0-.335-2.076,1.292,1.292,0,0,0-1.209-.581,2.255,2.255,0,0,1-.706-0.1,0.147,0.147,0,0,1-.156-0.181q0-.264.466-0.264,1.4,0.026,3.219.074,2.154-.024,4.284-0.074a6.191,6.191,0,0,1,3.9,1.11,4.324,4.324,0,0,1,.055,6.386,4.655,4.655,0,0,1-1.416.776,12.841,12.841,0,0,1-1.809.53q2.666,3.157,5.344,6.288a8.075,8.075,0,0,0,.928.814,3.065,3.065,0,0,0,.869.579q0.619,0.1.619,0.372,0,0.194-.416.194-0.3,0-.879-0.05-0.559-.024-1.093-0.024H89.011q-2.282-3.006-4.6-5.976a10.7,10.7,0,0,0-1.07-1.392A1.582,1.582,0,0,0,82.225,236a0.4,0.4,0,0,0-.463.432v4.221a3.9,3.9,0,0,0,.391,2.024,1.289,1.289,0,0,0,1.137.63,3.5,3.5,0,0,1,.734.048,0.247,0.247,0,0,1,.118.228c0,0.176-.156.265-0.469,0.265q-1.383-.049-3.223-0.073-1.828.024-3.235,0.073c-0.313,0-.469-0.089-0.469-0.265a0.2,0.2,0,0,1,.156-0.228,3.011,3.011,0,0,1,.706-0.048,1.4,1.4,0,0,0,1.209-.63,4.451,4.451,0,0,0,.335-2.024V229.993Zm4.09-2.657q-1.481,0-1.481.531v7.515h1.114a5.2,5.2,0,0,0,3.376-.865,4.272,4.272,0,0,0,1.019-3.288,3.85,3.85,0,0,0-1.114-3.09,4.873,4.873,0,0,0-2.914-.8h0Zm16.652,2.658a4.615,4.615,0,0,0-.335-2.077,1.293,1.293,0,0,0-1.209-.581,2.255,2.255,0,0,1-.706-0.1,0.147,0.147,0,0,1-.156-0.181q0-.264.468-0.264,2.929,0.026,5.858.074,2.954-.024,5.775-0.074a0.312,0.312,0,0,1,.4.3v2.857q0,0.5-.275.48a0.357,0.357,0,0,1-.334-0.359,2.627,2.627,0,0,0-.93-2.127,5.492,5.492,0,0,0-2.936-.531H103.9a6.055,6.055,0,0,0-.907.049,0.888,0.888,0,0,0-.394.1,0.488,0.488,0,0,0-.1.284v6.863a5.979,5.979,0,0,0,2.566-.507,2.69,2.69,0,0,0,.978-0.816,2.214,2.214,0,0,0,.418-1.237,2.936,2.936,0,0,1,.119-0.7,0.26,0.26,0,0,1,.251-0.137,0.273,0.273,0,0,1,.31.309q-0.024,1.565-.071,3.155,0.022,1.565.071,3.154a0.247,0.247,0,0,1-.262.3,0.17,0.17,0,0,1-.2-0.148,3.124,3.124,0,0,1-.215-0.7,2.226,2.226,0,0,0-1.074-1.642,4.664,4.664,0,0,0-2.052-.407H102.5v4.653a7.652,7.652,0,0,0,.12,1.444,2.461,2.461,0,0,0,.489,1q0.669,0.815,3.079.815a8.027,8.027,0,0,0,1.134-.074,5.85,5.85,0,0,0,.895-0.148,4.108,4.108,0,0,0,1.325-.568,2.821,2.821,0,0,0,1.145-1.962c0.08-.477.219-0.708,0.418-0.691,0.127,0,.2.1,0.215,0.307q0,0.431-.048,1.18a12.121,12.121,0,0,0-.1,1.39v0.861a0.321,0.321,0,0,1-.4.32q-3.192-.049-6.407-0.073-3.192.024-6.419,0.073-0.468,0-.468-0.266a0.2,0.2,0,0,1,.156-0.227,3.011,3.011,0,0,1,.706-0.048,1.4,1.4,0,0,0,1.209-.63,4.448,4.448,0,0,0,.335-2.024V229.994Zm18.558-.61a4.31,4.31,0,0,0-.692-1.518,1.049,1.049,0,0,0-.883-0.358q-0.823-.024-0.8-0.4,0-.314.489-0.314,1.289,0.026,3.2.074,1.91-.024,2.911-0.074c0.39-.016.592,0.08,0.608,0.289a0.272,0.272,0,0,1-.167.277,2.161,2.161,0,0,1-.536.049,2.351,2.351,0,0,0-1.026.222,0.966,0.966,0,0,0-.489.938,2.581,2.581,0,0,0,.071.481c0.048,0.222.1,0.477,0.167,0.765q0.2,0.851.418,1.666l2.66,9.152h0.048l3.471-11.649q0.19-.627.346-1.255,0.118-.615.191-0.861h0.787l4.1,13.657h0.048l1.515-5.055q0.417-1.258.954-3.256a13.473,13.473,0,0,0,.585-3.008,2.3,2.3,0,0,0-.251-1.258,0.849,0.849,0,0,0-.489-0.382,5.711,5.711,0,0,0-1.121-.247,0.268,0.268,0,0,1-.215-0.308c-0.016-.129.063-0.2,0.239-0.217q0.834,0.026,2.588.074,1-.024,1.957-0.074,0.417,0,.441.271a0.246,0.246,0,0,1-.143.234,3.908,3.908,0,0,1-.74.222,1.526,1.526,0,0,0-.93.813,15.028,15.028,0,0,0-.537,1.429l-1.73,5.826-1.539,4.977-1.217,3.658h-0.811q-2.076-6.987-3.889-13.027H128q-1.873,6.544-4.009,13.027h-0.823Zm36.545-5.3a6.57,6.57,0,0,0-.479-2.962,1.847,1.847,0,0,0-1.727-.828,3.249,3.249,0,0,1-1.009-.137,0.211,0.211,0,0,1-.222-0.258q0-.378.664-0.378,1.293,0.036,2.588.106,1.293-.036,2.57-0.106h0.6a0.6,0.6,0,0,1,.63.352l7.678,18.471,7.593-18.29a0.636,0.636,0,0,1,.605-0.533q1.453,0.036,2.907.106,1.454-.036,2.908-0.106c0.449,0,.675.126,0.675,0.378a0.225,0.225,0,0,1-.188.257,3.651,3.651,0,0,1-1.044.138,1.7,1.7,0,0,0-1.642.828,5.7,5.7,0,0,0-.564,2.962v15.23a5.514,5.514,0,0,0,.564,2.89,1.839,1.839,0,0,0,1.642.9,4.9,4.9,0,0,1,1.044.068,0.347,0.347,0,0,1,.188.326q0,0.378-.672.378-1.978-.069-4.612-0.1-2.616.034-4.63,0.1-0.671,0-.671-0.378a0.289,0.289,0,0,1,.221-0.326,4.318,4.318,0,0,1,1-.068,1.943,1.943,0,0,0,1.7-.9,6.158,6.158,0,0,0,.5-2.891v-16.26H173.74L165.3,243.3a0.51,0.51,0,0,1-.374.474,0.543,0.543,0,0,1-.459-0.441l-8.353-20.656h-0.068v16.64a5.679,5.679,0,0,0,.545,2.89,1.867,1.867,0,0,0,1.65.9,4.84,4.84,0,0,1,1.037.068,0.355,0.355,0,0,1,.17.326q0,0.378-.664.378-1.637-.069-3.273-0.1-1.637.034-3.289,0.1c-0.444,0-.665-0.126-0.665-0.378a0.289,0.289,0,0,1,.222-0.326,4.361,4.361,0,0,1,1.009-.068,2,2,0,0,0,1.727-.9,6.358,6.358,0,0,0,.479-2.891v-15.23Zm38.18,4.795c0,0.153-.057.23-0.172,0.23s-0.185-.089-0.185-0.309a0.223,0.223,0,0,0-.258-0.245,0.712,0.712,0,0,0-.369.143c-0.139.09-.316,0.2-0.529,0.335a1.454,1.454,0,0,1-.355.164,4.3,4.3,0,0,1-.466.157,4.645,4.645,0,0,1-1.3.178,4.981,4.981,0,0,1-3.836-1.458,4.835,4.835,0,0,1-1.3-3.468A5.21,5.21,0,0,1,186,220.483a5.314,5.314,0,0,1,3.612-1.336,5.72,5.72,0,0,1,1.162.1,3.618,3.618,0,0,1,.773.278,4.76,4.76,0,0,1,.487.249,0.548,0.548,0,0,0,.3.135,0.188,0.188,0,0,0,.181-0.106,0.311,0.311,0,0,0,.077-0.156,0.222,0.222,0,0,1,.167-0.262,0.175,0.175,0,0,1,.16.208q0,0.552.055,1.125t0.056,1.191c0,0.225-.046.342-0.139,0.351a0.139,0.139,0,0,1-.133-0.1,1.852,1.852,0,0,1-.125-0.395,2.352,2.352,0,0,0-.23-0.7,2.842,2.842,0,0,0-.557-0.748,2.977,2.977,0,0,0-.9-0.619,3.32,3.32,0,0,0-1.308-.237,3.133,3.133,0,0,0-1.226.252,3,3,0,0,0-1.114.856,4.521,4.521,0,0,0-.814,1.59,8.369,8.369,0,0,0-.314,2.474,6.026,6.026,0,0,0,.342,2.165,3.885,3.885,0,0,0,.856,1.417,3.343,3.343,0,0,0,1.142.763,2.99,2.99,0,0,0,1.128.237,2.7,2.7,0,0,0,2.179-.9,4.671,4.671,0,0,0,.953-1.9,0.789,0.789,0,0,1,.258-0.561,0.106,0.106,0,0,1,.124.086,1.415,1.415,0,0,1,.02.281v2.654Zm6.762-5.66a6.162,6.162,0,0,0-.989-2.168,1.5,1.5,0,0,0-1.261-.511q-1.177-.034-1.142-0.57,0-.449.7-0.449,1.84,0.036,4.567.106,2.727-.036,4.159-0.106,0.834-.035.869,0.413a0.39,0.39,0,0,1-.239.4,3.111,3.111,0,0,1-.767.069,3.349,3.349,0,0,0-1.465.318,1.379,1.379,0,0,0-.7,1.339,3.757,3.757,0,0,0,.1.688q0.1,0.476.239,1.093,0.29,1.216.6,2.379l3.8,13.075h0.068l4.959-16.642q0.273-.9.494-1.792,0.171-.879.273-1.23h1.125l5.862,19.51h0.068l2.165-7.222q0.6-1.8,1.363-4.651a19.272,19.272,0,0,0,.835-4.3,3.284,3.284,0,0,0-.358-1.8,1.214,1.214,0,0,0-.7-0.546,8.013,8.013,0,0,0-1.6-.352,0.383,0.383,0,0,1-.307-0.441q-0.034-.276.341-0.31,1.192,0.036,3.7.106,1.431-.036,2.8-0.106,0.6,0,.63.387a0.353,0.353,0,0,1-.2.335,5.627,5.627,0,0,1-1.057.316,2.183,2.183,0,0,0-1.329,1.162,21.7,21.7,0,0,0-.767,2.041l-2.471,8.324-2.2,7.109-1.738,5.227H219.2q-2.965-9.984-5.555-18.611h-0.069q-2.676,9.35-5.726,18.611H206.67Zm36.249,6.293H236.14l-2.887,7.386h5.679Zm0.441-3.1h0.883L242.9,240.8a7.6,7.6,0,0,0,.931,1.8,1.572,1.572,0,0,0,1.228.7c0.567,0.032.825,0.108,0.776,0.228a0.245,0.245,0,0,1-.072.24,0.905,0.905,0,0,1-.465.073q-1.491-.049-2.982-0.073-1.493.024-2.983,0.073-0.655.024-.632-0.313c-0.032-.136.247-0.212,0.835-0.228a0.961,0.961,0,0,0,1.122-1.013,7.157,7.157,0,0,0-.215-1.21,14.841,14.841,0,0,0-.549-1.569l-0.7-1.926h-6.2l-1.372,3.853a2.148,2.148,0,0,0-.119.753,0.844,0.844,0,0,0,.441.815,2.117,2.117,0,0,0,.954.3c0.454,0.048.664,0.124,0.633,0.228a0.245,0.245,0,0,1-.072.24,0.772,0.772,0,0,1-.417.073q-1.146-.049-2.291-0.073-1.156.024-2.3,0.073c-0.311,0-.458-0.1-0.442-0.313q-0.049-.156.513-0.228a2.54,2.54,0,0,0,.788-0.223,2.217,2.217,0,0,0,.7-0.531,9.788,9.788,0,0,0,1.515-2.889Zm18.732,1.552a0.747,0.747,0,0,0-.048-0.272,1,1,0,0,0-.466-0.135q-0.633-.074-3.249-0.074a4.671,4.671,0,0,0-2.15.382,1.664,1.664,0,0,0-.668.654,2.9,2.9,0,0,0-.335,1.16,2.21,2.21,0,0,1-.107.74,0.266,0.266,0,0,1-.263.148c-0.136,0-.2-0.11-0.2-0.332V227.17a0.351,0.351,0,0,1,.419-0.375h16.744a0.355,0.355,0,0,1,.419.381v3.061c0,0.221-.068.331-0.2,0.331a0.191,0.191,0,0,1-.215-0.148,2.1,2.1,0,0,1-.143-0.74,3.093,3.093,0,0,0-.274-1.16,1.527,1.527,0,0,0-.705-0.654,4.889,4.889,0,0,0-2.184-.382q-2.591,0-3.223.074a0.947,0.947,0,0,0-.442.135,0.439,0.439,0,0,0-.095.272V240.65a3.863,3.863,0,0,0,.394,2.023,1.3,1.3,0,0,0,1.146.63,3.548,3.548,0,0,1,.74.048,0.248,0.248,0,0,1,.119.228c0,0.176-.156.265-0.47,0.265q-1.386-.049-3.23-0.073-1.831.024-3.242,0.073c-0.314,0-.47-0.089-0.47-0.265a0.2,0.2,0,0,1,.155-0.228,3.012,3.012,0,0,1,.706-0.048,1.368,1.368,0,0,0,1.2-.629,4.323,4.323,0,0,0,.347-2.024V227.965Zm22.146,0a0.747,0.747,0,0,0-.048-0.272,1,1,0,0,0-.466-0.135q-0.633-.074-3.249-0.074a4.671,4.671,0,0,0-2.15.382,1.666,1.666,0,0,0-.669.654,2.916,2.916,0,0,0-.334,1.16,2.175,2.175,0,0,1-.108.74,0.264,0.264,0,0,1-.262.148c-0.136,0-.2-0.11-0.2-0.332V227.17a0.351,0.351,0,0,1,.419-0.375h16.744a0.355,0.355,0,0,1,.419.381v3.061c0,0.221-.068.331-0.2,0.331a0.191,0.191,0,0,1-.215-0.148,2.1,2.1,0,0,1-.143-0.74,3.092,3.092,0,0,0-.275-1.16,1.52,1.52,0,0,0-.7-0.654,4.889,4.889,0,0,0-2.184-.382q-2.59,0-3.223.074a0.947,0.947,0,0,0-.442.135,0.439,0.439,0,0,0-.1.272V240.65a3.863,3.863,0,0,0,.394,2.023,1.3,1.3,0,0,0,1.146.63,3.548,3.548,0,0,1,.74.048,0.248,0.248,0,0,1,.119.228c0,0.176-.157.265-0.47,0.265q-1.386-.049-3.23-0.073-1.833.024-3.242,0.073c-0.314,0-.47-0.089-0.47-0.265a0.2,0.2,0,0,1,.155-0.228,3.012,3.012,0,0,1,.706-0.048,1.368,1.368,0,0,0,1.2-.629,4.323,4.323,0,0,0,.347-2.024V227.965Zm17.575,2.029a4.606,4.606,0,0,0-.335-2.077,1.291,1.291,0,0,0-1.208-.581,2.259,2.259,0,0,1-.707-0.1,0.147,0.147,0,0,1-.155-0.181q0-.264.468-0.264,2.93,0.026,5.858.074,2.954-.024,5.775-0.074a0.312,0.312,0,0,1,.4.3v2.857q0,0.5-.274.48a0.356,0.356,0,0,1-.334-0.359,2.627,2.627,0,0,0-.931-2.127,5.492,5.492,0,0,0-2.936-.531h-1.611a6.064,6.064,0,0,0-.907.049,0.892,0.892,0,0,0-.394.1,0.486,0.486,0,0,0-.095.284v6.863a5.974,5.974,0,0,0,2.565-.507,2.7,2.7,0,0,0,.979-0.816,2.221,2.221,0,0,0,.417-1.237,2.869,2.869,0,0,1,.12-0.7,0.258,0.258,0,0,1,.25-0.137,0.273,0.273,0,0,1,.31.309q-0.024,1.565-.071,3.155,0.024,1.565.071,3.154a0.247,0.247,0,0,1-.262.3,0.17,0.17,0,0,1-.2-0.148,3.124,3.124,0,0,1-.215-0.7,2.226,2.226,0,0,0-1.074-1.642,4.664,4.664,0,0,0-2.052-.407h-0.835v4.653a7.659,7.659,0,0,0,.119,1.444,2.461,2.461,0,0,0,.489,1q0.669,0.815,3.079.815a8.027,8.027,0,0,0,1.134-.074,5.85,5.85,0,0,0,.9-0.148,4.1,4.1,0,0,0,1.325-.568,2.826,2.826,0,0,0,1.146-1.962c0.079-.477.218-0.708,0.417-0.691,0.128,0,.2.1,0.215,0.307q0,0.431-.048,1.18a12.121,12.121,0,0,0-.1,1.39v0.861a0.321,0.321,0,0,1-.4.32q-3.192-.049-6.407-0.073-3.192.024-6.419,0.073-0.468,0-.468-0.266a0.2,0.2,0,0,1,.155-0.227,3.017,3.017,0,0,1,.707-0.048,1.4,1.4,0,0,0,1.208-.63,4.439,4.439,0,0,0,.335-2.024V229.994Zm19.35,0a4.618,4.618,0,0,0-.335-2.076,1.292,1.292,0,0,0-1.209-.581,2.257,2.257,0,0,1-.706-0.1,0.148,0.148,0,0,1-.156-0.181q0-.264.467-0.264,1.4,0.026,3.219.074,2.153-.024,4.283-0.074a6.194,6.194,0,0,1,3.9,1.11,4.326,4.326,0,0,1,.055,6.386,4.659,4.659,0,0,1-1.416.776,12.839,12.839,0,0,1-1.81.53q2.667,3.157,5.344,6.288a8.035,8.035,0,0,0,.929.814,3.06,3.06,0,0,0,.868.579q0.62,0.1.619,0.372,0,0.194-.416.194-0.3,0-.879-0.05-0.56-.024-1.093-0.024H324.29q-2.281-3.006-4.6-5.976a10.7,10.7,0,0,0-1.069-1.392,1.583,1.583,0,0,0-1.117-.406,0.4,0.4,0,0,0-.464.432v4.221a3.892,3.892,0,0,0,.391,2.024,1.29,1.29,0,0,0,1.137.63,3.509,3.509,0,0,1,.735.048,0.247,0.247,0,0,1,.118.228c0,0.176-.156.265-0.469,0.265q-1.383-.049-3.223-0.073-1.827.024-3.235,0.073c-0.312,0-.469-0.089-0.469-0.265a0.2,0.2,0,0,1,.156-0.228,3.012,3.012,0,0,1,.706-0.048,1.4,1.4,0,0,0,1.209-.63,4.455,4.455,0,0,0,.335-2.024V229.993Zm4.09-2.657q-1.48,0-1.481.531v7.515h1.114a5.2,5.2,0,0,0,3.376-.865,4.273,4.273,0,0,0,1.019-3.288,3.849,3.849,0,0,0-1.114-3.09,4.872,4.872,0,0,0-2.914-.8h0Zm14.092,11.747a0.349,0.349,0,0,1,.346-0.432q0.334,0,.358.481a6.832,6.832,0,0,0,.37,1.11,6.164,6.164,0,0,0,.787,1.518,4.737,4.737,0,0,0,1.419,1.271,3.521,3.521,0,0,0,2.075.58,3.682,3.682,0,0,0,2.827-1.06,3.333,3.333,0,0,0,.906-2.331,3.507,3.507,0,0,0-.346-1.614,3.006,3.006,0,0,0-1-1.11,7.05,7.05,0,0,0-1.36-.863q-0.787-.345-1.6-0.678-0.8-.383-1.562-0.777a7.478,7.478,0,0,1-1.384-.961,5.119,5.119,0,0,1-.978-1.369,4.235,4.235,0,0,1-.394-1.886,4.008,4.008,0,0,1,1.657-3.489,5.75,5.75,0,0,1,3.326-1.06,6.9,6.9,0,0,1,1.562.146,3.326,3.326,0,0,1,.953.4c0.254,0.139.473,0.264,0.656,0.378a0.989,0.989,0,0,0,.584.195,0.3,0.3,0,0,0,.25-0.17,1.189,1.189,0,0,0,.119-0.3,0.44,0.44,0,0,1,.239-0.45c0.2,0,.3.144,0.3,0.431q0.022,1.844.071,3.627c0,0.336-.087.5-0.262,0.5a0.368,0.368,0,0,1-.227-0.271,3.473,3.473,0,0,1-.263-0.641,4.552,4.552,0,0,0-1.539-2.419,3.941,3.941,0,0,0-2.375-.814,3.184,3.184,0,0,0-2.148.764,2.47,2.47,0,0,0-.907,1.96,2.729,2.729,0,0,0,1.419,2.454,10.432,10.432,0,0,0,1.443.813q0.774,0.37,1.634.752a10.829,10.829,0,0,1,3.1,1.874,4.445,4.445,0,0,1,1,1.455,5.252,5.252,0,0,1,.369,2.071,4.489,4.489,0,0,1-1.787,3.76,6.886,6.886,0,0,1-4.289,1.294,5.976,5.976,0,0,1-1.692-.256,6.735,6.735,0,0,1-1.215-.5,9.824,9.824,0,0,1-.834-0.525,1.1,1.1,0,0,0-.584-0.2,0.214,0.214,0,0,0-.19.123c-0.048.091-.1,0.186-0.155,0.284a1.432,1.432,0,0,1-.119.272,0.277,0.277,0,0,1-.239.16,0.243,0.243,0,0,1-.227-0.185,0.472,0.472,0,0,1-.1-0.3v-4.022Zm23.912,0.658a5.6,5.6,0,0,1,1.159-3.5,20.408,20.408,0,0,1,4.824-4.031q-2.463-3.748-2.463-6.6a6.633,6.633,0,0,1,1.87-5.05,5.4,5.4,0,0,1,3.723-1.583,4.749,4.749,0,0,1,3.386,1.232,4.524,4.524,0,0,1,1.347,3.416,9.4,9.4,0,0,1-.135,1.584,5.406,5.406,0,0,1-.657,1.709,16.184,16.184,0,0,1-4.047,4.208q2.4,3.2,5.086,6.2a29.093,29.093,0,0,0,2.993-4.967,8.587,8.587,0,0,1,1.888-2.643,3.058,3.058,0,0,1,1.939-.563,2.69,2.69,0,0,1,1.882.633,2.557,2.557,0,0,1,.695,1.955,1.975,1.975,0,0,1-.492,1.373,1.614,1.614,0,0,1-1.322.581,1.477,1.477,0,0,1-1-.406,1.162,1.162,0,0,1-.528-0.969,3.191,3.191,0,0,1,.07-0.794,0.6,0.6,0,0,0-.616-0.687,1.239,1.239,0,0,0-.925.617,13.76,13.76,0,0,0-.976,1.692q-0.531,1.041-1.2,2.31a24.567,24.567,0,0,1-1.781,2.626,24.7,24.7,0,0,0,3.638,3.4,4.124,4.124,0,0,0,2.307,1,2.123,2.123,0,0,0,1.127-.282,2.659,2.659,0,0,0,.7-0.512,1.609,1.609,0,0,1,1.076-.758q0.273,0,.324.438a3.15,3.15,0,0,1-1.3,1.717,6.354,6.354,0,0,1-1.569.893,6,6,0,0,1-2.165.438,6.735,6.735,0,0,1-2.729-.721,11.646,11.646,0,0,1-3.564-2.886q-3.395,3.571-7.231,3.607a5.406,5.406,0,0,1-3.871-1.408,4.19,4.19,0,0,1-1.467-3.272h0Zm3.059-1.637a4.824,4.824,0,0,0,1.126,3.15,3.856,3.856,0,0,0,1.246,1.039,3.071,3.071,0,0,0,1.605.44,6.207,6.207,0,0,0,4.864-2.605,82.876,82.876,0,0,1-5.564-7.094q-3.277,2.042-3.277,5.07h0Zm2.537-14.917a8.335,8.335,0,0,0,.622,3.1,20.839,20.839,0,0,0,2.168,4,8.36,8.36,0,0,0,2.52-2.961,7.918,7.918,0,0,0,.656-3.174,5.5,5.5,0,0,0-.874-3.314,2.585,2.585,0,0,0-2.1-1.093,2.994,2.994,0,0,0-1.983.794,3.45,3.45,0,0,0-1.009,2.646h0Zm53.441,19.633q0,0.564-.422.564-0.454.053-.455-0.758a0.544,0.544,0,0,0-.631-0.6,1.735,1.735,0,0,0-.9.349q-0.512.333-1.3,0.821a3.574,3.574,0,0,1-.87.4,10.284,10.284,0,0,1-1.142.385,11.4,11.4,0,0,1-3.19.437q-6.245-.07-9.4-3.573a11.849,11.849,0,0,1-3.172-8.5q0.068-6.81,3.905-10.1a13.028,13.028,0,0,1,8.851-3.273,13.928,13.928,0,0,1,2.848.244,8.822,8.822,0,0,1,1.892.68,11.5,11.5,0,0,1,1.194.61,1.347,1.347,0,0,0,.734.331,0.465,0.465,0,0,0,.443-0.26,0.76,0.76,0,0,0,.188-0.382,0.548,0.548,0,0,1,.409-0.643,0.429,0.429,0,0,1,.392.51q0,1.353.137,2.758,0.135,1.441.136,2.917,0,0.826-.341.862a0.34,0.34,0,0,1-.324-0.247,4.35,4.35,0,0,1-.307-0.968,5.838,5.838,0,0,0-.563-1.709,6.967,6.967,0,0,0-1.365-1.833,7.287,7.287,0,0,0-2.2-1.516,8.132,8.132,0,0,0-3.207-.582,7.684,7.684,0,0,0-3,.617,7.349,7.349,0,0,0-2.729,2.1,11.074,11.074,0,0,0-2,3.9,20.529,20.529,0,0,0-.768,6.063,14.811,14.811,0,0,0,.836,5.306,9.53,9.53,0,0,0,2.1,3.472,8.168,8.168,0,0,0,2.8,1.869,7.352,7.352,0,0,0,2.764.581q3.633-.071,5.34-2.2a11.477,11.477,0,0,0,2.337-4.653q0.426-1.48.631-1.375a0.258,0.258,0,0,1,.3.211,3.265,3.265,0,0,1,.051.688v6.5Zm7.688-7.5a8.577,8.577,0,0,1,2.564-6.43,9.867,9.867,0,0,1,13.074,0,8.624,8.624,0,0,1,2.541,6.43,8.537,8.537,0,0,1-2.541,6.381,9.724,9.724,0,0,1-13.074,0,8.49,8.49,0,0,1-2.564-6.381h0Zm3.028,0a10.9,10.9,0,0,0,1.491,5.688,5.039,5.039,0,0,0,4.57,2.678,5.092,5.092,0,0,0,4.594-2.678,11.03,11.03,0,0,0,1.468-5.688,11.215,11.215,0,0,0-1.468-5.737,5.109,5.109,0,0,0-4.594-2.628,5.056,5.056,0,0,0-4.57,2.628,11.083,11.083,0,0,0-1.491,5.737h0Zm22.307,6.956a1.964,1.964,0,0,1,.631-1.465,1.835,1.835,0,0,1,1.364-.576,1.993,1.993,0,0,1,1.433.576,2.125,2.125,0,0,1,.545,1.465,1.957,1.957,0,0,1-.545,1.395,2.061,2.061,0,0,1-1.433.645,1.9,1.9,0,0,1-1.364-.645,1.819,1.819,0,0,1-.631-1.395h0Z" transform="translate(-0.844 -218.969)"/>
</svg>
