<svg xmlns="http://www.w3.org/2000/svg" width="289.125" height="62.469" viewBox="0 0 289.125 62.469">
  <defs>
    <style>
      .cls-1 {
        fill: #121212;
        fill-rule: evenodd;
      }
    </style>
  </defs>
  <path id="logo.r51.small_2x.svg" data-name="logo.r51.small@2x.svg" class="cls-1" d="M34.537,50.757v-1h9.511v1h-9.51Zm-22-45.4H12.468L8.344,15.912h8.112Zm0.631-4.426h1.261l7.7,20.553a10.831,10.831,0,0,0,1.329,2.571,2.246,2.246,0,0,0,1.755,1q1.213,0.069,1.108.326a0.352,0.352,0,0,1-.1.343,1.315,1.315,0,0,1-.665.1q-2.131-.069-4.26-0.1-2.131.034-4.261,0.1-0.937.035-.9-0.447-0.068-.292,1.193-0.326,1.636-.071,1.6-1.447a10.182,10.182,0,0,0-.307-1.729,21.065,21.065,0,0,0-.784-2.24l-1.006-2.752H7.969l-1.96,5.5a3.082,3.082,0,0,0-.17,1.076,1.206,1.206,0,0,0,.63,1.165,3.028,3.028,0,0,0,1.364.423q0.971,0.1.9,0.326a0.352,0.352,0,0,1-.1.343,1.119,1.119,0,0,1-.6.1q-1.637-.069-3.272-0.1-1.653.034-3.289,0.1-0.666,0-.63-0.447-0.071-.223.733-0.326A3.651,3.651,0,0,0,2.7,24.745a3.2,3.2,0,0,0,1.006-.759,14.035,14.035,0,0,0,2.164-4.128Zm20.5,10.272a2,2,0,0,0-.418-1.079,2.437,2.437,0,0,0-1.42-.772q-0.86-.1-0.835-0.38,0-.245.346-0.221,0.561,0.025,2.007.074,1.027,0,2.054-.074L45.838,22.226h0.048V11.959a3.878,3.878,0,0,0-.334-1.948,1.786,1.786,0,0,0-1.23-.579,2.467,2.467,0,0,1-.68-0.2,0.189,0.189,0,0,1-.143-0.21q0-.27.466-0.27,1.146,0.025,2.292.074,1.146-.025,2.3-0.074,0.465,0,.466.271a0.239,0.239,0,0,1-.108.209,2.608,2.608,0,0,1-.73.2,1.628,1.628,0,0,0-1.172.579,3.366,3.366,0,0,0-.395,1.946V26.186H45.811L34.451,11.464H34.4V22.6a3.263,3.263,0,0,0,.394,1.9,1.55,1.55,0,0,0,1.17.629,3.918,3.918,0,0,1,.728.173,0.264,0.264,0,0,1,.107.234q0,0.271-.466.271-1.16-.048-2.307-0.072-1.148.024-2.3,0.072-0.466,0-.466-0.27A0.205,0.205,0,0,1,31.41,25.3a3.81,3.81,0,0,1,.68-0.172A1.7,1.7,0,0,0,33.32,24.5a3.609,3.609,0,0,0,.346-1.892v-11.4Zm23.39,0.742a4.6,4.6,0,0,0-.335-2.073,1.294,1.294,0,0,0-1.209-.58A2.252,2.252,0,0,1,54.8,9.2a0.143,0.143,0,0,1-.144-0.18q0-.264.454-0.264,1.4,0.025,3.216.074,1.853-.025,3.694-0.074a9.7,9.7,0,0,1,6.515,2.168,8.151,8.151,0,0,1,2.594,6.43,9.044,9.044,0,0,1-1.913,6.011q-1.984,2.39-6.443,2.439-1.973-.048-4.447-0.072-1.817.024-3.216,0.072-0.454,0-.454-0.265a0.2,0.2,0,0,1,.144-0.228,3.014,3.014,0,0,1,.707-0.048,1.4,1.4,0,0,0,1.209-.629,4.447,4.447,0,0,0,.335-2.024V11.949Zm11.05,5.836a14.744,14.744,0,0,0-.582-4.393,5.806,5.806,0,0,0-1.555-2.554,5.027,5.027,0,0,0-2.018-1.222A9.735,9.735,0,0,0,61.8,9.37h-1.14a1.426,1.426,0,0,0-.8.148,0.824,0.824,0,0,0-.2.629v11.71q0,0.321.024,0.679,0,0.358.024,0.654a3.322,3.322,0,0,0,.131.555,1.685,1.685,0,0,0,.214.506,1.805,1.805,0,0,0,.926.654,4.162,4.162,0,0,0,1.721.284,5.36,5.36,0,0,0,2.9-.679,4.086,4.086,0,0,0,1.626-1.7,8.238,8.238,0,0,0,.736-2.394,24.046,24.046,0,0,0,.142-2.628h0Zm11.047-5.832a4.613,4.613,0,0,0-.335-2.076A1.292,1.292,0,0,0,77.609,9.3,2.251,2.251,0,0,1,76.9,9.2a0.147,0.147,0,0,1-.156-0.18q0-.264.466-0.264,1.4,0.025,3.219.074,2.154-.025,4.284-0.074a6.193,6.193,0,0,1,3.9,1.11,3.907,3.907,0,0,1,1.436,3.255,3.928,3.928,0,0,1-1.381,3.131,4.643,4.643,0,0,1-1.416.777,13.012,13.012,0,0,1-1.809.53q2.666,3.156,5.344,6.288a8.038,8.038,0,0,0,.928.814,3.065,3.065,0,0,0,.869.579q0.619,0.1.619,0.372,0,0.194-.416.194-0.3,0-.88-0.049-0.559-.025-1.093-0.025H89.011q-2.282-3.006-4.6-5.975a10.715,10.715,0,0,0-1.07-1.392,1.582,1.582,0,0,0-1.117-.407,0.4,0.4,0,0,0-.464.432v4.221a3.9,3.9,0,0,0,.391,2.024,1.289,1.289,0,0,0,1.137.63,3.5,3.5,0,0,1,.734.048,0.248,0.248,0,0,1,.118.228q0,0.265-.469.264-1.383-.048-3.223-0.072-1.828.024-3.235,0.072-0.469,0-.469-0.264a0.2,0.2,0,0,1,.156-0.228,3.007,3.007,0,0,1,.706-0.048,1.4,1.4,0,0,0,1.209-.63,4.452,4.452,0,0,0,.335-2.024V11.953ZM83.243,9.3q-1.481,0-1.481.531v7.515h1.114a5.2,5.2,0,0,0,3.376-.865,4.271,4.271,0,0,0,1.019-3.288,3.849,3.849,0,0,0-1.114-3.09,4.87,4.87,0,0,0-2.914-.8h0Zm16.652,2.658a4.617,4.617,0,0,0-.335-2.077A1.292,1.292,0,0,0,98.35,9.3a2.25,2.25,0,0,1-.706-0.1,0.147,0.147,0,0,1-.156-0.18q0-.264.468-0.264,2.929,0.025,5.858.074,2.954-.025,5.775-0.074a0.312,0.312,0,0,1,.4.3v2.856c0,0.336-.092.5-0.274,0.48a0.357,0.357,0,0,1-.335-0.359,2.627,2.627,0,0,0-.93-2.127,5.49,5.49,0,0,0-2.936-.532H103.9a6.052,6.052,0,0,0-.907.049,0.876,0.876,0,0,0-.394.1,0.486,0.486,0,0,0-.1.284v6.862a5.964,5.964,0,0,0,2.566-.507,2.689,2.689,0,0,0,.978-0.816,2.211,2.211,0,0,0,.418-1.236,2.945,2.945,0,0,1,.119-0.7,0.26,0.26,0,0,1,.251-0.136,0.273,0.273,0,0,1,.31.308q-0.024,1.565-.071,3.155,0.022,1.565.071,3.155a0.248,0.248,0,0,1-.262.3,0.171,0.171,0,0,1-.2-0.148,3.14,3.14,0,0,1-.215-0.7,2.225,2.225,0,0,0-1.074-1.642,4.66,4.66,0,0,0-2.052-.407H102.5v4.653a7.645,7.645,0,0,0,.12,1.444,2.465,2.465,0,0,0,.489,1q0.669,0.815,3.079.814a7.953,7.953,0,0,0,1.134-.074,5.826,5.826,0,0,0,.895-0.148,4.108,4.108,0,0,0,1.325-.568,2.819,2.819,0,0,0,1.145-1.962q0.12-.716.418-0.691c0.127,0,.2.1,0.215,0.307q0,0.43-.048,1.18a12.1,12.1,0,0,0-.1,1.39v0.861a0.321,0.321,0,0,1-.4.32q-3.192-.048-6.407-0.072-3.192.024-6.419,0.072-0.468,0-.468-0.265a0.2,0.2,0,0,1,.156-0.228,3.011,3.011,0,0,1,.706-0.048,1.4,1.4,0,0,0,1.209-.629,4.45,4.45,0,0,0,.335-2.024V11.954Zm18.558-.61a4.309,4.309,0,0,0-.692-1.518,1.048,1.048,0,0,0-.883-0.358q-0.823-.024-0.8-0.4,0-.314.489-0.314,1.289,0.025,3.2.074,1.91-.025,2.911-0.074c0.39-.016.592,0.08,0.608,0.289a0.273,0.273,0,0,1-.167.277,2.2,2.2,0,0,1-.536.048,2.35,2.35,0,0,0-1.026.222,0.966,0.966,0,0,0-.489.938,2.575,2.575,0,0,0,.071.481c0.048,0.222.1,0.477,0.167,0.765q0.2,0.851.418,1.666l2.66,9.153h0.048l3.471-11.65q0.19-.627.346-1.255,0.118-.615.191-0.861h0.787l4.1,13.657h0.048l1.515-5.055q0.417-1.258.954-3.255a13.482,13.482,0,0,0,.585-3.008,2.3,2.3,0,0,0-.251-1.258,0.85,0.85,0,0,0-.489-0.382,5.653,5.653,0,0,0-1.121-.247,0.268,0.268,0,0,1-.215-0.308c-0.016-.129.063-0.2,0.239-0.217l2.588,0.074q1-.025,1.957-0.074,0.417,0,.441.271a0.247,0.247,0,0,1-.143.234,3.925,3.925,0,0,1-.74.222,1.527,1.527,0,0,0-.93.813,15.119,15.119,0,0,0-.537,1.429L135.5,17.55l-1.539,4.977-1.217,3.659h-0.811q-2.076-6.988-3.889-13.028H128q-1.873,6.545-4.009,13.028h-0.823ZM5.227,42.083a6.569,6.569,0,0,0-.479-2.961,1.847,1.847,0,0,0-1.727-.828,3.213,3.213,0,0,1-1.009-.137A0.21,0.21,0,0,1,1.791,37.9q0-.378.664-0.378,1.293,0.035,2.588.106,1.293-.035,2.571-0.106h0.6a0.6,0.6,0,0,1,.63.352l7.678,18.471,7.593-18.291a0.636,0.636,0,0,1,.606-0.532q1.454,0.035,2.907.106,1.454-.035,2.907-0.106,0.675,0,.675.378a0.225,0.225,0,0,1-.188.257,3.65,3.65,0,0,1-1.043.138,1.7,1.7,0,0,0-1.642.828,5.693,5.693,0,0,0-.564,2.961v15.23a5.512,5.512,0,0,0,.564,2.891,1.838,1.838,0,0,0,1.642.9,4.836,4.836,0,0,1,1.043.069,0.346,0.346,0,0,1,.188.326q0,0.378-.671.378-1.979-.069-4.613-0.1-2.616.034-4.629,0.1-0.671,0-.671-0.378a0.289,0.289,0,0,1,.221-0.326,4.264,4.264,0,0,1,1-.069,1.942,1.942,0,0,0,1.7-.9,6.162,6.162,0,0,0,.5-2.891V41.053h-0.07L15.534,61.3a0.508,0.508,0,0,1-.374.474,0.543,0.543,0,0,1-.459-0.44L6.348,40.673H6.28v16.64A5.685,5.685,0,0,0,6.824,60.2a1.868,1.868,0,0,0,1.65.9,4.782,4.782,0,0,1,1.037.069,0.354,0.354,0,0,1,.17.326q0,0.378-.665.378-1.637-.069-3.273-0.1-1.636.034-3.289,0.1-0.665,0-.665-0.378a0.289,0.289,0,0,1,.222-0.326A4.306,4.306,0,0,1,3.022,61.1a2,2,0,0,0,1.727-.9,6.357,6.357,0,0,0,.479-2.891V42.083Zm38.181,4.8q0,0.23-.172.23-0.186.021-.186-0.309a0.222,0.222,0,0,0-.258-0.245,0.71,0.71,0,0,0-.369.143q-0.209.136-.529,0.335a1.484,1.484,0,0,1-.355.164,4.142,4.142,0,0,1-.466.157,4.645,4.645,0,0,1-1.3.178,4.983,4.983,0,0,1-3.836-1.458A4.836,4.836,0,0,1,34.641,42.6a5.209,5.209,0,0,1,1.594-4.122,5.317,5.317,0,0,1,3.612-1.336,5.691,5.691,0,0,1,1.162.1,3.632,3.632,0,0,1,.772.277,4.714,4.714,0,0,1,.487.249,0.549,0.549,0,0,0,.3.135,0.189,0.189,0,0,0,.181-0.106,0.307,0.307,0,0,0,.077-0.156,0.223,0.223,0,0,1,.167-0.262,0.175,0.175,0,0,1,.16.208q0,0.552.056,1.126t0.056,1.19q0,0.338-.139.352a0.139,0.139,0,0,1-.132-0.1,1.8,1.8,0,0,1-.125-0.4,2.37,2.37,0,0,0-.23-0.7,2.84,2.84,0,0,0-.557-0.748,2.975,2.975,0,0,0-.9-0.619,3.322,3.322,0,0,0-1.309-.237,3.132,3.132,0,0,0-1.225.252,3,3,0,0,0-1.114.856,4.521,4.521,0,0,0-.815,1.59,8.38,8.38,0,0,0-.313,2.474,6.039,6.039,0,0,0,.341,2.165,3.889,3.889,0,0,0,.856,1.417,3.33,3.33,0,0,0,1.142.763,2.994,2.994,0,0,0,1.128.237,2.694,2.694,0,0,0,2.179-.9,4.681,4.681,0,0,0,.954-1.9,0.793,0.793,0,0,1,.258-0.561,0.106,0.106,0,0,1,.124.086,1.347,1.347,0,0,1,.021.281v2.654Zm6.761-5.659a6.158,6.158,0,0,0-.989-2.168,1.5,1.5,0,0,0-1.261-.511q-1.177-.035-1.142-0.57,0-.449.7-0.449,1.84,0.035,4.567.106,2.727-.035,4.158-0.106,0.835-.035.869,0.413a0.391,0.391,0,0,1-.239.4,3.154,3.154,0,0,1-.767.069,3.359,3.359,0,0,0-1.466.317,1.38,1.38,0,0,0-.7,1.34,3.725,3.725,0,0,0,.1.687q0.1,0.476.239,1.093,0.29,1.216.6,2.38l3.8,13.075h0.068l4.959-16.642q0.273-.9.494-1.793,0.17-.879.273-1.23h1.125l5.862,19.51h0.068l2.164-7.222q0.6-1.8,1.364-4.65a19.268,19.268,0,0,0,.835-4.3,3.288,3.288,0,0,0-.358-1.8,1.215,1.215,0,0,0-.7-0.546,8.055,8.055,0,0,0-1.6-.352,0.383,0.383,0,0,1-.307-0.441q-0.034-.276.341-0.31l3.7,0.106q1.432-.035,2.8-0.106,0.6,0,.63.387a0.351,0.351,0,0,1-.2.334,5.609,5.609,0,0,1-1.056.317,2.179,2.179,0,0,0-1.329,1.162,21.659,21.659,0,0,0-.767,2.041l-2.471,8.324-2.2,7.109-1.738,5.227H69.427q-2.965-9.983-5.556-18.611H63.8q-2.676,9.35-5.726,18.611H56.9Zm36.249,6.293H86.371L83.484,54.9h5.679Zm0.441-3.1h0.883L93.135,58.8a7.582,7.582,0,0,0,.93,1.8,1.572,1.572,0,0,0,1.229.7q0.849,0.048.775,0.228a0.246,0.246,0,0,1-.072.24,0.92,0.92,0,0,1-.465.072q-1.491-.048-2.982-0.072-1.491.024-2.982,0.072-0.656.024-.632-0.313-0.048-.2.835-0.228a0.96,0.96,0,0,0,1.121-1.013,7.135,7.135,0,0,0-.215-1.211,14.76,14.76,0,0,0-.549-1.568l-0.7-1.927h-6.2l-1.372,3.853a2.157,2.157,0,0,0-.119.753,0.844,0.844,0,0,0,.441.815,2.119,2.119,0,0,0,.954.3q0.68,0.072.632,0.228a0.246,0.246,0,0,1-.072.24,0.783,0.783,0,0,1-.417.072q-1.146-.048-2.291-0.072-1.157.024-2.3,0.072-0.466,0-.441-0.313-0.049-.156.513-0.228a2.555,2.555,0,0,0,.787-0.222,2.236,2.236,0,0,0,.7-0.531,9.825,9.825,0,0,0,1.515-2.89Zm18.731,1.552a0.743,0.743,0,0,0-.048-0.271,0.988,0.988,0,0,0-.465-0.136q-0.633-.074-3.249-0.074a4.672,4.672,0,0,0-2.15.382,1.659,1.659,0,0,0-.669.654,2.907,2.907,0,0,0-.334,1.16,2.186,2.186,0,0,1-.108.74,0.267,0.267,0,0,1-.263.148q-0.2,0-.2-0.333V45.17a0.352,0.352,0,0,1,.419-0.375h16.743a0.355,0.355,0,0,1,.42.381v3.061c0,0.221-.068.332-0.2,0.332a0.191,0.191,0,0,1-.215-0.148,2.1,2.1,0,0,1-.144-0.74,3.071,3.071,0,0,0-.274-1.16,1.522,1.522,0,0,0-.7-0.654,4.893,4.893,0,0,0-2.185-.382q-2.59,0-3.222.074a0.932,0.932,0,0,0-.442.136,0.432,0.432,0,0,0-.1.271V58.65a3.875,3.875,0,0,0,.394,2.023,1.3,1.3,0,0,0,1.146.629,3.553,3.553,0,0,1,.74.048,0.247,0.247,0,0,1,.12.228q0,0.264-.47.265-1.387-.048-3.231-0.072-1.832.024-3.242,0.072-0.469,0-.47-0.265a0.2,0.2,0,0,1,.156-0.228,3,3,0,0,1,.7-0.048,1.365,1.365,0,0,0,1.2-.629,4.305,4.305,0,0,0,.347-2.024V45.965Zm22.146,0a0.743,0.743,0,0,0-.048-0.271,0.992,0.992,0,0,0-.465-0.136q-0.635-.074-3.249-0.074a4.67,4.67,0,0,0-2.15.382,1.657,1.657,0,0,0-.669.654,2.9,2.9,0,0,0-.334,1.16,2.179,2.179,0,0,1-.108.74,0.268,0.268,0,0,1-.263.148c-0.135,0-.2-0.111-0.2-0.333V45.17a0.352,0.352,0,0,1,.42-0.375h16.743a0.354,0.354,0,0,1,.419.381v3.061c0,0.221-.067.332-0.2,0.332a0.191,0.191,0,0,1-.215-0.148,2.1,2.1,0,0,1-.144-0.74A3.09,3.09,0,0,0,137,46.52a1.522,1.522,0,0,0-.7-0.654,4.9,4.9,0,0,0-2.185-.382q-2.591,0-3.223.074a0.927,0.927,0,0,0-.441.136,0.432,0.432,0,0,0-.1.271V58.65a3.875,3.875,0,0,0,.394,2.023,1.3,1.3,0,0,0,1.146.629,3.553,3.553,0,0,1,.74.048,0.247,0.247,0,0,1,.12.228q0,0.264-.47.265-1.388-.048-3.231-0.072-1.831.024-3.242,0.072-0.47,0-.47-0.265a0.2,0.2,0,0,1,.156-0.228,3,3,0,0,1,.7-0.048,1.367,1.367,0,0,0,1.2-.629,4.318,4.318,0,0,0,.347-2.024V45.965Zm17.576,2.029a4.621,4.621,0,0,0-.335-2.077,1.293,1.293,0,0,0-1.209-.581,2.244,2.244,0,0,1-.706-0.1,0.148,0.148,0,0,1-.156-0.18q0-.264.469-0.264,2.928,0.025,5.858.074,2.953-.024,5.775-0.074a0.313,0.313,0,0,1,.4.3v2.856q0,0.5-.275.48a0.357,0.357,0,0,1-.334-0.359,2.627,2.627,0,0,0-.931-2.127,5.49,5.49,0,0,0-2.936-.532h-1.611a6.066,6.066,0,0,0-.907.049,0.88,0.88,0,0,0-.394.1,0.491,0.491,0,0,0-.095.284V52.7a5.955,5.955,0,0,0,2.565-.507,2.7,2.7,0,0,0,.979-0.816,2.212,2.212,0,0,0,.418-1.236,2.843,2.843,0,0,1,.119-0.7,0.259,0.259,0,0,1,.251-0.136,0.273,0.273,0,0,1,.31.308q-0.024,1.565-.072,3.155,0.024,1.565.072,3.155a0.248,0.248,0,0,1-.263.3,0.171,0.171,0,0,1-.2-0.148,3.151,3.151,0,0,1-.214-0.7,2.225,2.225,0,0,0-1.074-1.641,4.66,4.66,0,0,0-2.053-.407h-0.835v4.653a7.734,7.734,0,0,0,.119,1.444,2.479,2.479,0,0,0,.49,1q0.667,0.815,3.079.815a7.948,7.948,0,0,0,1.133-.074,5.853,5.853,0,0,0,.9-0.148,4.093,4.093,0,0,0,1.324-.568,2.817,2.817,0,0,0,1.146-1.962q0.12-.716.418-0.691c0.127,0,.2.1,0.215,0.307q0,0.43-.048,1.18a12.1,12.1,0,0,0-.1,1.39v0.861a0.321,0.321,0,0,1-.4.32q-3.192-.049-6.408-0.072-3.191.024-6.419,0.072-0.468,0-.468-0.265a0.2,0.2,0,0,1,.156-0.228,3.014,3.014,0,0,1,.706-0.048,1.4,1.4,0,0,0,1.209-.629,4.454,4.454,0,0,0,.335-2.024V47.994Zm19.349,0a4.6,4.6,0,0,0-.335-2.076,1.291,1.291,0,0,0-1.208-.581,2.252,2.252,0,0,1-.707-0.1,0.147,0.147,0,0,1-.155-0.18q0-.264.466-0.264,1.4,0.025,3.219.074,2.154-.024,4.283-0.074a6.192,6.192,0,0,1,3.9,1.11,4.324,4.324,0,0,1,.055,6.386,4.645,4.645,0,0,1-1.416.777,13.025,13.025,0,0,1-1.809.53q2.666,3.156,5.344,6.288a8.094,8.094,0,0,0,.928.814,3.065,3.065,0,0,0,.869.579c0.412,0.064.619,0.188,0.619,0.372q0,0.194-.416.194c-0.2,0-.492-0.017-0.88-0.049q-0.558-.025-1.093-0.025h-1.806q-2.283-3.006-4.6-5.975a10.712,10.712,0,0,0-1.07-1.392A1.58,1.58,0,0,0,167.735,54a0.4,0.4,0,0,0-.463.432v4.221a3.892,3.892,0,0,0,.391,2.024,1.287,1.287,0,0,0,1.137.63,3.5,3.5,0,0,1,.734.048,0.248,0.248,0,0,1,.119.228c0,0.176-.157.265-0.469,0.265q-1.383-.048-3.223-0.072-1.829.024-3.235,0.072-0.469,0-.469-0.265a0.2,0.2,0,0,1,.155-0.228,3.021,3.021,0,0,1,.707-0.048,1.4,1.4,0,0,0,1.208-.63,4.442,4.442,0,0,0,.335-2.024V47.993Zm4.091-2.657q-1.482,0-1.481.531v7.515h1.113a5.194,5.194,0,0,0,3.376-.865,4.267,4.267,0,0,0,1.019-3.288,3.851,3.851,0,0,0-1.113-3.09,4.871,4.871,0,0,0-2.914-.8h0Zm14.091,11.747a0.349,0.349,0,0,1,.347-0.432q0.333,0,.357.481a6.818,6.818,0,0,0,.37,1.11,6.171,6.171,0,0,0,.787,1.518,4.736,4.736,0,0,0,1.419,1.271,3.52,3.52,0,0,0,2.076.58,3.676,3.676,0,0,0,2.826-1.06,3.327,3.327,0,0,0,.907-2.33,3.521,3.521,0,0,0-.346-1.615,3.015,3.015,0,0,0-1-1.11,7.016,7.016,0,0,0-1.36-.863q-0.786-.345-1.6-0.678-0.8-.382-1.562-0.777a7.529,7.529,0,0,1-1.384-.962,5.14,5.14,0,0,1-.977-1.368,4.223,4.223,0,0,1-.394-1.886,4.006,4.006,0,0,1,1.657-3.489,5.742,5.742,0,0,1,3.325-1.06,6.875,6.875,0,0,1,1.562.146,3.326,3.326,0,0,1,.954.4q0.381,0.207.655,0.377a0.991,0.991,0,0,0,.584.195,0.3,0.3,0,0,0,.25-0.17,1.189,1.189,0,0,0,.12-0.3,0.44,0.44,0,0,1,.238-0.45q0.3,0,.3.43,0.024,1.844.072,3.627,0,0.505-.263.505a0.37,0.37,0,0,1-.227-0.271,3.46,3.46,0,0,1-.262-0.641,4.548,4.548,0,0,0-1.54-2.418,3.941,3.941,0,0,0-2.375-.814,3.187,3.187,0,0,0-2.148.764,2.47,2.47,0,0,0-.907,1.96,2.727,2.727,0,0,0,1.419,2.453,10.54,10.54,0,0,0,1.443.813q0.775,0.37,1.634.752a10.832,10.832,0,0,1,3.1,1.874,4.425,4.425,0,0,1,1,1.455,5.234,5.234,0,0,1,.37,2.071,4.494,4.494,0,0,1-1.787,3.76,6.889,6.889,0,0,1-4.289,1.294,5.985,5.985,0,0,1-1.692-.257,6.69,6.69,0,0,1-1.216-.5,9.763,9.763,0,0,1-.834-0.525,1.1,1.1,0,0,0-.583-0.2,0.215,0.215,0,0,0-.191.123c-0.048.091-.1,0.185-0.155,0.284a1.376,1.376,0,0,1-.119.272,0.277,0.277,0,0,1-.238.16,0.241,0.241,0,0,1-.227-0.185,0.468,0.468,0,0,1-.1-0.3V57.083Zm17.5,0.658a5.6,5.6,0,0,1,1.158-3.5,20.418,20.418,0,0,1,4.824-4.031q-2.463-3.748-2.463-6.6a6.637,6.637,0,0,1,1.87-5.05,5.4,5.4,0,0,1,3.723-1.584,4.752,4.752,0,0,1,3.386,1.232,4.524,4.524,0,0,1,1.348,3.416,9.413,9.413,0,0,1-.135,1.585,5.405,5.405,0,0,1-.658,1.708,16.153,16.153,0,0,1-4.046,4.208q2.4,3.2,5.085,6.2a29.112,29.112,0,0,0,2.993-4.967,8.575,8.575,0,0,1,1.888-2.642,3.062,3.062,0,0,1,1.939-.564,2.689,2.689,0,0,1,1.882.634,2.555,2.555,0,0,1,.695,1.954,1.977,1.977,0,0,1-.491,1.373,1.615,1.615,0,0,1-1.323.581,1.476,1.476,0,0,1-1-.405,1.162,1.162,0,0,1-.529-0.97,3.173,3.173,0,0,1,.071-0.793,0.6,0.6,0,0,0-.617-0.688,1.245,1.245,0,0,0-.925.617,13.784,13.784,0,0,0-.976,1.692q-0.531,1.04-1.2,2.309a24.532,24.532,0,0,1-1.781,2.627,24.648,24.648,0,0,0,3.639,3.4,4.111,4.111,0,0,0,2.306,1.005,2.12,2.12,0,0,0,1.127-.282,2.66,2.66,0,0,0,.7-0.511,1.6,1.6,0,0,1,1.076-.758q0.273,0,.324.438a3.157,3.157,0,0,1-1.3,1.717,6.326,6.326,0,0,1-1.569.893,5.986,5.986,0,0,1-2.166.438,6.729,6.729,0,0,1-2.729-.721,11.639,11.639,0,0,1-3.564-2.885q-3.393,3.571-7.23,3.606a5.408,5.408,0,0,1-3.872-1.408,4.192,4.192,0,0,1-1.466-3.273h0Zm3.058-1.637a4.826,4.826,0,0,0,1.127,3.151,3.844,3.844,0,0,0,1.246,1.039,3.061,3.061,0,0,0,1.6.44,6.209,6.209,0,0,0,4.865-2.605,82.643,82.643,0,0,1-5.565-7.094q-3.276,2.042-3.277,5.069h0Zm2.538-14.917a8.313,8.313,0,0,0,.621,3.1,20.871,20.871,0,0,0,2.168,4,8.373,8.373,0,0,0,2.521-2.962,7.913,7.913,0,0,0,.655-3.173,5.489,5.489,0,0,0-.874-3.314,2.582,2.582,0,0,0-2.1-1.093,2.993,2.993,0,0,0-1.983.793,3.447,3.447,0,0,0-1.008,2.646h0ZM252.975,60.82q0,0.564-.421.564-0.456.053-.455-0.758a0.544,0.544,0,0,0-.631-0.6,1.74,1.74,0,0,0-.905.349q-0.511.333-1.3,0.821a3.653,3.653,0,0,1-.87.4,10.177,10.177,0,0,1-1.143.384,11.389,11.389,0,0,1-3.19.437q-6.243-.07-9.4-3.572a11.848,11.848,0,0,1-3.173-8.5q0.068-6.81,3.905-10.1a13.03,13.03,0,0,1,8.851-3.273,13.935,13.935,0,0,1,2.848.244,8.892,8.892,0,0,1,1.893.68,11.536,11.536,0,0,1,1.194.61,1.345,1.345,0,0,0,.733.331,0.463,0.463,0,0,0,.443-0.26,0.75,0.75,0,0,0,.188-0.382,0.548,0.548,0,0,1,.409-0.642,0.428,0.428,0,0,1,.393.51q0,1.353.136,2.758,0.136,1.441.136,2.917,0,0.827-.341.862a0.34,0.34,0,0,1-.324-0.246,4.426,4.426,0,0,1-.307-0.968,5.785,5.785,0,0,0-.563-1.709,6.951,6.951,0,0,0-1.365-1.833,7.287,7.287,0,0,0-2.2-1.516,8.146,8.146,0,0,0-3.208-.581,7.677,7.677,0,0,0-3,.617,7.353,7.353,0,0,0-2.73,2.1,11.078,11.078,0,0,0-2,3.9,20.531,20.531,0,0,0-.767,6.063,14.81,14.81,0,0,0,.835,5.305,9.545,9.545,0,0,0,2.1,3.472,8.157,8.157,0,0,0,2.8,1.868,7.331,7.331,0,0,0,2.763.581q3.635-.07,5.34-2.2a11.475,11.475,0,0,0,2.337-4.653q0.426-1.48.631-1.375a0.26,0.26,0,0,1,.3.212,3.35,3.35,0,0,1,.05.687v6.5Zm7.688-7.5a8.58,8.58,0,0,1,2.565-6.43,9.867,9.867,0,0,1,13.074,0,8.619,8.619,0,0,1,2.54,6.43A8.532,8.532,0,0,1,276.3,59.7a9.724,9.724,0,0,1-13.074,0,8.494,8.494,0,0,1-2.565-6.381h0Zm3.028,0a10.9,10.9,0,0,0,1.492,5.688,5.036,5.036,0,0,0,4.57,2.677,5.093,5.093,0,0,0,4.594-2.677,11.043,11.043,0,0,0,1.467-5.688,11.225,11.225,0,0,0-1.467-5.737,5.113,5.113,0,0,0-4.594-2.628,5.055,5.055,0,0,0-4.57,2.628,11.075,11.075,0,0,0-1.492,5.737h0ZM286,60.275a1.965,1.965,0,0,1,.631-1.465,1.837,1.837,0,0,1,1.364-.575,1.992,1.992,0,0,1,1.433.575,2.122,2.122,0,0,1,.546,1.465,1.953,1.953,0,0,1-.546,1.4,2.062,2.062,0,0,1-1.433.645,1.908,1.908,0,0,1-1.364-.645,1.818,1.818,0,0,1-.631-1.4h0Z" transform="translate(-0.844 -0.938)"/>
</svg>
