
<svg width="452px" height="26px" viewBox="0 0 452 26" version="1.1" xmlns="http://www.w3.org/2000/svg" xmlns:xlink="http://www.w3.org/1999/xlink">
    <!-- Generator: Sketch 43.2 (39069) - http://www.bohemiancoding.com/sketch -->
    <desc>Created with Sketch.</desc>
    <defs></defs>
    <g id="Page-1" stroke="none" stroke-width="1" fill="none" fill-rule="evenodd">
        <g id="logo.r51@2x" transform="translate(-1.000000, 0.000000)" fill="#121212">
            <path d="M184.356,13.788 L184.356,12.788 L193.866,12.788 L193.866,13.788 L184.356,13.788 Z M12.692,4.431 L12.624,4.431 L8.5,14.983 L16.612,14.983 L12.692,4.431 Z M13.323,0.006 L14.584,0.006 L22.284,20.559 C22.6111888,21.4719526 23.0591707,22.3369748 23.616,23.131 C24.0098756,23.7231849 24.6607494,24.0940532 25.371,24.131 C26.1796667,24.177 26.549,24.2856667 26.479,24.457 C26.5107027,24.5810143 26.4723822,24.7124536 26.379,24.8 C26.1697854,24.8905406 25.94059,24.925006 25.714,24.9 C24.2933333,24.854 22.873,24.8206667 21.453,24.8 C20.0323333,24.8226667 18.6123333,24.856 17.193,24.9 C16.5683333,24.924 16.2683333,24.7753333 16.293,24.454 C16.2476667,24.2593333 16.6453333,24.1506667 17.486,24.128 C18.5766667,24.0813333 19.11,23.599 19.086,22.681 C19.0337086,22.0968932 18.9309924,21.5184039 18.779,20.952 C18.5599738,20.1908649 18.2982255,19.4426785 17.995,18.711 L16.989,15.959 L8.125,15.959 L6.165,21.459 C6.04485951,21.8050645 5.98729454,22.1697555 5.995,22.536 C5.95404481,23.0149251 6.20163697,23.4723811 6.625,23.7 C7.03923718,23.9483339 7.50697725,24.0937311 7.989,24.124 C8.63633333,24.1906667 8.93633333,24.2993333 8.889,24.45 C8.92070273,24.5740143 8.88238223,24.7054536 8.789,24.793 C8.60211757,24.8812468 8.39440126,24.9158662 8.189,24.893 C7.09766667,24.847 6.007,24.8136667 4.917,24.793 C3.815,24.8156667 2.71866667,24.849 1.628,24.893 C1.184,24.893 0.974,24.7443333 0.998,24.447 C0.950666667,24.2976667 1.195,24.189 1.731,24.121 C2.12067054,24.0762372 2.50055837,23.9688556 2.856,23.803 C3.2383283,23.6191833 3.58029163,23.3611812 3.862,23.044 C4.80820708,21.8031586 5.54060867,20.4130489 6.029,18.931 L13.323,0.006 Z M33.823,10.278 C33.7930292,9.88500295 33.6476083,9.50962217 33.405,9.199 C33.0334695,8.78736963 32.5324766,8.51499888 31.985,8.427 C31.4116667,8.36033333 31.133,8.23366667 31.149,8.047 C31.149,7.883 31.264,7.81 31.495,7.826 C31.869,7.84333333 32.538,7.868 33.502,7.9 C34.1866667,7.9 34.8713333,7.87533333 35.556,7.826 L45.994,21.297 L46.042,21.297 L46.042,11.031 C46.1006498,10.3640475 45.9855812,9.6932734 45.708,9.084 C45.3906565,8.73585514 44.9484957,8.52735655 44.478,8.504 C44.2428038,8.47080069 44.0137187,8.4034227 43.798,8.304 C43.7035241,8.28169947 43.6415605,8.19113736 43.655,8.095 C43.655,7.915 43.8103333,7.825 44.121,7.825 C44.885,7.84233333 45.649,7.867 46.413,7.899 C47.177,7.883 47.9436667,7.85833333 48.713,7.825 C49.023,7.825 49.1783333,7.91533333 49.179,8.096 C49.1821537,8.17978812 49.141169,8.2591011 49.071,8.305 C48.8386964,8.40683729 48.5927698,8.47421445 48.341,8.505 C47.8866638,8.52517604 47.461573,8.73481977 47.169,9.083 C46.8460922,9.67834999 46.7101781,10.3572236 46.779,11.031 L46.779,25.258 L45.967,25.258 L34.607,10.531 L34.556,10.531 L34.556,21.665 C34.4916242,22.3236337 34.6290349,22.9862738 34.95,23.565 C35.2258532,23.9394701 35.6554607,24.1700629 36.12,24.193 C36.3675888,24.2275296 36.6113461,24.2854555 36.848,24.366 C36.921836,24.4201639 36.9623303,24.5087216 36.955,24.6 C36.955,24.7806667 36.7996667,24.8713333 36.489,24.872 C35.7156667,24.84 34.9466667,24.816 34.182,24.8 C33.4166667,24.816 32.65,24.84 31.882,24.872 C31.571,24.872 31.416,24.781 31.416,24.601 C31.3948606,24.4977925 31.4574064,24.3958821 31.559,24.368 C31.7798274,24.289654 32.0074796,24.2320714 32.239,24.196 C32.7188749,24.1701078 33.1653717,23.9423181 33.468,23.569 C33.7524054,22.981259 33.8719881,22.3273563 33.814,21.677 L33.814,10.277 L33.823,10.278 Z M57.213,11.02 C57.2626567,10.3124135 57.1480029,9.60292901 56.878,8.947 C56.6134959,8.54470371 56.1483098,8.32153752 55.669,8.367 C55.4295211,8.37137538 55.1908713,8.3376201 54.962,8.267 C54.9162931,8.26897659 54.8723996,8.24896452 54.8439166,8.213163 C54.8154337,8.17736148 54.8058,8.13009297 54.818,8.086 C54.818,7.91 54.9693333,7.822 55.272,7.822 C56.2053333,7.83933333 57.2773333,7.864 58.488,7.896 C59.7233333,7.88 60.9546667,7.85533333 62.182,7.822 C64.5453604,7.7261688 66.8622969,8.497177 68.697,9.99 C70.4756026,11.6404119 71.4264668,13.9974114 71.291,16.42 C71.3953826,18.5886237 70.7164007,20.7224655 69.378,22.432 C68.0553333,24.0246667 65.9076667,24.8376667 62.935,24.871 C61.6196667,24.8383333 60.1373333,24.814 58.488,24.798 C57.2766667,24.814 56.2046667,24.8383333 55.272,24.871 C54.9693333,24.871 54.818,24.7823333 54.818,24.605 C54.8004097,24.5035466 54.8627227,24.4053171 54.962,24.378 C55.1949605,24.3342645 55.4322658,24.3181532 55.669,24.33 C56.1537394,24.343873 56.6111363,24.1059055 56.878,23.701 C57.1457467,23.061623 57.2604602,22.3685481 57.213,21.677 L57.213,11.02 L57.213,11.02 Z M68.263,16.856 C68.2913749,15.370711 68.0951602,13.8896604 67.681,12.463 C67.3943667,11.4905812 66.8582792,10.6100877 66.126,9.909 C65.5596606,9.34775131 64.8679638,8.92923704 64.108,8.688 C63.4031162,8.52580142 62.682302,8.44295306 61.959,8.441 L60.819,8.441 C60.5436105,8.41136795 60.2655619,8.46280694 60.019,8.589 C59.8674965,8.76158044 59.7949903,8.9896125 59.819,9.218 L59.819,20.931 C59.819,21.145 59.827,21.3713333 59.843,21.61 C59.843,21.849 59.851,22.066 59.867,22.264 C59.8945706,22.4524334 59.9384009,22.6381265 59.998,22.819 C60.0412398,22.9982156 60.1135292,23.169143 60.212,23.325 C60.4424709,23.6367387 60.767139,23.8660399 61.138,23.979 C61.6852237,24.1939589 62.2717255,24.2907436 62.859,24.263 C63.8704212,24.3154025 64.8759724,24.0799649 65.759,23.584 C66.4559671,23.1890281 67.0214172,22.5978442 67.385,21.884 C67.7508863,21.1281647 67.9990861,20.320841 68.121,19.49 C68.2163128,18.6172524 68.2637172,17.7399365 68.263,16.862 L68.263,16.862 L68.263,16.856 Z M79.31,11.024 C79.3596516,10.3154375 79.2450065,9.6049799 78.975,8.948 C78.7119765,8.5439188 78.2458391,8.3199107 77.766,8.367 C77.5268525,8.37132012 77.2885405,8.33756488 77.06,8.267 C77.0128028,8.27123156 76.96646,8.25245166 76.9355233,8.21655724 C76.9045867,8.18066282 76.8928505,8.1320562 76.904,8.086 C76.904,7.91 77.0593333,7.822 77.37,7.822 C78.3033333,7.83933333 79.3763333,7.864 80.589,7.896 C82.025,7.88 83.453,7.85533333 84.873,7.822 C86.260745,7.74371169 87.634463,8.13469297 88.773,8.932 C89.6772307,9.74348532 90.1983417,10.8979502 90.2088053,12.1128708 C90.219269,13.3277915 89.7181196,14.4910607 88.828,15.318 C88.4048086,15.6571787 87.9256009,15.9197953 87.412,16.094 C86.8227991,16.3147476 86.2181704,16.4918915 85.603,16.624 C87.3803333,18.7286667 89.1616667,20.8246667 90.947,22.912 C91.2351106,23.2066142 91.5453502,23.4787425 91.875,23.726 C92.1294154,23.9672861 92.4233469,24.1631277 92.744,24.305 C93.1566667,24.3716667 93.363,24.4956667 93.363,24.677 C93.363,24.8063333 93.2243333,24.871 92.947,24.871 C92.747,24.871 92.454,24.8543333 92.068,24.821 C91.6953333,24.805 91.331,24.797 90.975,24.797 L89.167,24.797 C87.6456667,22.793 86.1123333,20.801 84.567,18.821 C84.2490678,18.328472 83.8911967,17.8629051 83.497,17.429 C83.1906014,17.1567771 82.7905113,17.0140927 82.381,17.031 C82.2586938,17.0109401 82.1339975,17.0487091 82.0433772,17.133262 C81.952757,17.2178148 81.9064506,17.3395989 81.918,17.463 L81.918,21.684 C81.8644431,22.3815241 81.9994943,23.080613 82.309,23.708 C82.5466182,24.1077147 82.9811077,24.3484609 83.446,24.338 C83.6916735,24.3281744 83.9376985,24.3442632 84.18,24.386 C84.2588424,24.4339844 84.3043543,24.5219226 84.298,24.614 C84.298,24.79 84.142,24.879 83.829,24.879 C82.907,24.8463333 81.8326667,24.822 80.606,24.806 C79.3873333,24.822 78.309,24.8463333 77.371,24.879 C77.058,24.879 76.902,24.79 76.902,24.614 C76.8847253,24.5085255 76.9534318,24.4081083 77.058,24.386 C77.2906287,24.3423061 77.527598,24.3261948 77.764,24.338 C78.2489338,24.3516544 78.7063729,24.1132866 78.973,23.708 C79.2407467,23.068623 79.3554602,22.3755481 79.308,21.684 L79.308,11.024 L79.31,11.024 Z M83.4,8.367 C82.4126667,8.367 81.919,8.544 81.919,8.898 L81.919,16.413 L83.033,16.413 C84.2243299,16.5215771 85.4166646,16.2160766 86.409,15.548 C87.1947419,14.6434023 87.5644695,13.4504048 87.428,12.26 C87.5367208,11.1153262 87.1281261,9.98197108 86.314,9.17 C85.4519769,8.60129253 84.4315648,8.32115194 83.4,8.37 L83.4,8.37 L83.4,8.367 Z M100.052,11.025 C100.101735,10.3161083 99.9870893,9.60530716 99.717,8.948 C99.4538213,8.54409545 98.9877981,8.32014221 98.508,8.367 C98.2688525,8.37132012 98.0305405,8.33756488 97.802,8.267 C97.7548028,8.27123156 97.70846,8.25245166 97.6775233,8.21655724 C97.6465867,8.18066282 97.6348505,8.1320562 97.646,8.086 C97.646,7.91 97.802,7.822 98.114,7.822 C100.066667,7.83933333 102.019333,7.864 103.972,7.896 C105.941333,7.88 107.866333,7.85533333 109.747,7.822 C109.841442,7.79423486 109.943449,7.81266883 110.022201,7.87173238 C110.100952,7.93079593 110.147211,8.02356098 110.147,8.122 L110.147,10.979 C110.147,11.3123333 110.055333,11.4723333 109.872,11.459 C109.683095,11.4468099 109.536547,11.2892921 109.538,11.1 C109.575073,10.2850588 109.231442,9.49914061 108.608,8.973 C107.697085,8.52845837 106.680916,8.34467576 105.672,8.442 L104.056,8.442 C103.752866,8.4356015 103.44968,8.45198091 103.149,8.491 C103.011701,8.49342094 102.876835,8.52765102 102.755,8.591 C102.692566,8.6727601 102.657566,8.77215946 102.655,8.875 L102.655,15.738 C103.537269,15.7604538 104.413569,15.5873112 105.221,15.231 C105.607624,15.0412153 105.943025,14.761371 106.199,14.415 C106.459517,14.0540627 106.605187,13.6229781 106.617,13.178 C106.628202,12.9407117 106.668161,12.7056599 106.736,12.478 C106.784787,12.3862932 106.883478,12.3324261 106.987,12.341 C107.072273,12.328438 107.15847,12.3568841 107.219516,12.4177333 C107.280562,12.4785825 107.309286,12.5646871 107.297,12.65 C107.281,13.6933333 107.257333,14.745 107.226,15.805 C107.240667,16.8483333 107.264333,17.8996667 107.297,18.959 C107.314162,19.0357665 107.293734,19.1161173 107.241991,19.1753651 C107.190247,19.2346129 107.113378,19.2656721 107.035,19.259 C106.988612,19.2676264 106.940725,19.2565853 106.902796,19.2285184 C106.864868,19.2004515 106.840311,19.1578838 106.835,19.111 C106.73614,18.886902 106.663977,18.651955 106.62,18.411 C106.535536,17.726903 106.138918,17.1205278 105.546,16.769 C104.901642,16.4797051 104.199994,16.3405381 103.494,16.362 L102.656,16.362 L102.656,21.015 C102.650235,21.4990455 102.690415,21.9825459 102.776,22.459 C102.860485,22.8253062 103.027763,23.1673895 103.265,23.459 C103.711,24.0023333 104.737333,24.274 106.344,24.274 C106.723274,24.2761553 107.102223,24.2514267 107.478,24.2 C107.779714,24.173907 108.078947,24.124425 108.373,24.052 C108.844695,23.9422493 109.293267,23.7499557 109.698,23.484 C110.33776,23.0193632 110.753159,22.307563 110.843,21.522 C110.923,21.045 111.062,20.814 111.261,20.831 C111.388,20.831 111.461,20.931 111.476,21.138 C111.476,21.4253333 111.46,21.8186667 111.428,22.318 C111.368037,22.7790321 111.334648,23.2431323 111.328,23.708 L111.328,24.569 C111.330792,24.6696035 111.286239,24.7656926 111.207651,24.8285633 C111.129062,24.891434 111.025537,24.9138074 110.928,24.889 C108.8,24.8563333 106.664333,24.832 104.521,24.816 C102.393,24.832 100.253333,24.8563333 98.102,24.889 C97.79,24.889 97.634,24.8003333 97.634,24.623 C97.6173111,24.5178771 97.6858802,24.4181002 97.79,24.396 C98.0226287,24.3523061 98.259598,24.3361948 98.496,24.348 C98.9809338,24.3616544 99.4383729,24.1232866 99.705,23.718 C99.9728538,23.0786538 100.087572,22.3855534 100.04,21.694 L100.04,11.025 L100.052,11.025 Z M118.61,10.415 C118.480399,9.86876054 118.24533,9.35310228 117.918,8.897 C117.697967,8.64316713 117.369677,8.51006651 117.035,8.539 C116.486333,8.523 116.219667,8.38966667 116.235,8.139 C116.235,7.92966667 116.398,7.825 116.724,7.825 C117.583333,7.84233333 118.65,7.867 119.924,7.899 C121.197333,7.883 122.167667,7.85833333 122.835,7.825 C123.225,7.809 123.427,7.905 123.443,8.114 C123.454242,8.23299692 123.386482,8.345389 123.276,8.391 C123.100073,8.42960649 122.920011,8.44606747 122.74,8.44 C122.385639,8.43572526 122.034897,8.51161687 121.714,8.662 C121.37908,8.84970867 121.187114,9.21793941 121.225,9.6 C121.233478,9.76221028 121.257251,9.92325801 121.296,10.081 C121.344,10.303 121.396,10.558 121.463,10.846 C121.596333,11.4133333 121.735667,11.9686667 121.881,12.512 L124.541,21.664 L124.589,21.664 L128.06,10.015 C128.186667,9.597 128.302,9.17866667 128.406,8.76 C128.484667,8.35 128.548333,8.063 128.597,7.899 L129.384,7.899 L133.484,21.556 L133.532,21.556 L135.047,16.501 C135.325,15.6623333 135.643,14.577 136.001,13.245 C136.309762,12.2678443 136.506031,11.2586517 136.586,10.237 C136.623332,9.80234845 136.536279,9.3660432 136.335,8.979 C136.226039,8.79452718 136.051361,8.65807126 135.846,8.597 C135.481577,8.47722752 135.106014,8.39447629 134.725,8.35 C134.58134,8.32313202 134.485696,8.18611612 134.51,8.042 C134.494,7.913 134.573,7.842 134.749,7.825 C135.305,7.84233333 136.167667,7.867 137.337,7.899 C138.003667,7.883 138.656,7.85833333 139.294,7.825 C139.572,7.825 139.719,7.91533333 139.735,8.096 C139.739263,8.19579884 139.682754,8.28826721 139.592,8.33 C139.353271,8.42826029 139.105394,8.50262358 138.852,8.552 C138.441269,8.67981064 138.103558,8.97503584 137.922,9.365 C137.718907,9.83192831 137.539675,10.3088768 137.385,10.794 L135.655,16.62 L134.116,21.597 L132.899,25.255 L132.088,25.255 C130.704,20.597 129.407667,16.2546667 128.199,12.228 L128.156,12.228 C126.907333,16.5906667 125.571,20.933 124.147,25.255 L123.324,25.255 L118.61,10.415 Z M155.155,5.115 C155.225944,4.10393655 155.062002,3.09016845 154.676,2.153 C154.299575,1.57677864 153.633976,1.25766094 152.949,1.325 C152.607557,1.33264932 152.267042,1.28641497 151.94,1.188 C151.872974,1.19324114 151.807462,1.16622704 151.763611,1.11526518 C151.71976,1.06430332 151.70282,0.995494836 151.718,0.93 C151.718,0.678 151.939333,0.552 152.382,0.552 C153.244,0.576 154.106667,0.611333333 154.97,0.658 C155.832,0.634 156.688667,0.598666667 157.54,0.552 L158.14,0.552 C158.40498,0.515814951 158.661918,0.659373688 158.77,0.904 L166.448,19.375 L174.041,1.085 C174.089895,0.785867367 174.34309,0.562804155 174.646,0.552 C175.614667,0.576 176.583667,0.611333333 177.553,0.658 C178.522333,0.634 179.491667,0.598666667 180.461,0.552 C180.91,0.552 181.136,0.678 181.136,0.93 C181.145194,0.989016974 181.130544,1.04926768 181.09528,1.09747497 C181.060015,1.14568225 181.00703,1.17788973 180.948,1.187 C180.608497,1.28320993 180.25684,1.32969335 179.904,1.325 C179.24174,1.25559633 178.599934,1.57923552 178.262,2.153 C177.811531,3.07180788 177.616715,4.09493991 177.698,5.115 L177.698,20.345 C177.620555,21.3416481 177.815507,22.3406014 178.262,23.235 C178.604196,23.8120498 179.233476,24.1569662 179.904,24.135 C180.25343,24.120344 180.603424,24.1431406 180.948,24.203 C181.069267,24.2652993 181.142816,24.392837 181.136,24.529 C181.136,24.781 180.912,24.907 180.464,24.907 C179.145333,24.861 177.608,24.8276667 175.852,24.807 C174.108,24.8296667 172.564667,24.863 171.222,24.907 C170.774667,24.907 170.551,24.781 170.551,24.529 C170.527756,24.3791877 170.624229,24.2368793 170.772,24.203 C171.101564,24.1415918 171.437157,24.1187714 171.772,24.135 C172.45783,24.1562169 173.103999,23.8141272 173.472,23.235 C173.86915,22.3256905 174.040685,21.3338759 173.972,20.344 L173.972,4.084 L173.896,4.084 L165.456,24.331 C165.448301,24.5537493 165.296848,24.7456977 165.082,24.805 C164.849848,24.7724877 164.664769,24.5946664 164.623,24.364 L156.27,3.708 L156.202,3.708 L156.202,20.348 C156.126751,21.3424767 156.314721,22.3392337 156.747,23.238 C157.094884,23.8131518 157.725088,24.1568993 158.397,24.138 C158.744105,24.1233833 159.091776,24.1461813 159.434,24.206 C159.546907,24.2745733 159.612401,24.4001676 159.604,24.532 C159.604,24.784 159.382667,24.91 158.94,24.91 C157.848667,24.864 156.757667,24.8306667 155.667,24.81 C154.575667,24.8326667 153.479333,24.866 152.378,24.91 C151.934,24.91 151.713,24.784 151.713,24.532 C151.689827,24.3818775 151.786825,24.2394377 151.935,24.206 C152.267558,24.1442813 152.606168,24.1214612 152.944,24.138 C153.636712,24.1574562 154.290131,23.8169369 154.671,23.238 C155.053596,22.3247766 155.217619,21.334818 155.15,20.347 L155.15,5.117 L155.155,5.115 Z M193.335,9.91 C193.335,10.063 193.278,10.14 193.163,10.14 C193.048,10.14 192.978,10.051 192.978,9.831 C192.985833,9.76154382 192.960648,9.69243307 192.909963,9.64430221 C192.859278,9.59617136 192.788959,9.57458937 192.72,9.586 C192.585958,9.59783959 192.458016,9.64742167 192.351,9.729 C192.212,9.819 192.035,9.929 191.822,10.064 C191.711591,10.1344027 191.592178,10.1895681 191.467,10.228 C191.314789,10.2891795 191.159201,10.3415985 191.001,10.385 C190.578272,10.5055472 190.140573,10.5654784 189.701,10.563 C188.272233,10.650781 186.874761,10.1196251 185.865,9.105 C184.988541,8.16736859 184.520854,6.91972564 184.565,5.637 C184.457309,4.09467772 185.040183,2.58419001 186.156,1.514 C187.150601,0.63270378 188.439305,0.156040188 189.768,0.178 C190.157729,0.171654932 190.547086,0.205162397 190.93,0.278 C191.197385,0.341019573 191.456723,0.434287264 191.703,0.556 C191.869972,0.629596944 192.032573,0.712734161 192.19,0.805 C192.273814,0.879662412 192.378534,0.926786387 192.49,0.94 C192.566269,0.9447357 192.637817,0.902835019 192.671,0.834 C192.710984,0.790383723 192.737696,0.736266136 192.748,0.678 C192.723097,0.559773353 192.797313,0.443338787 192.915,0.416 C192.96509,0.419380491 193.011316,0.444110634 193.041926,0.483903438 C193.072535,0.523696242 193.084581,0.574718814 193.075,0.624 C193.075,0.992 193.093333,1.367 193.13,1.749 C193.166667,2.131 193.185333,2.528 193.186,2.94 C193.186,3.165 193.14,3.282 193.047,3.291 C192.985407,3.2908153 192.931281,3.25011885 192.914,3.191 C192.857691,3.06442301 192.815762,2.93192749 192.789,2.796 C192.749585,2.55203234 192.671966,2.31580093 192.559,2.096 C192.415789,1.81769651 192.227589,1.5649611 192.002,1.348 C191.742746,1.0879237 191.43761,0.87805834 191.102,0.729 C190.686435,0.562630053 190.241519,0.482014422 189.794,0.492 C189.372543,0.492683029 188.955557,0.578393115 188.568,0.744 C188.134148,0.937138378 187.752347,1.2305156 187.454,1.6 C187.079623,2.07059012 186.802889,2.61113893 186.64,3.19 C186.412362,3.99435634 186.30652,4.8282794 186.326,5.664 C186.306691,6.40050561 186.422609,7.13430844 186.668,7.829 C186.848215,8.35734714 187.140176,8.84065171 187.524,9.246 C187.847756,9.5766315 188.236628,9.83644723 188.666,10.009 C189.02307,10.1604112 189.406188,10.2409066 189.794,10.246 C190.619863,10.2956992 191.422923,9.96400845 191.973,9.346 C192.432464,8.79432304 192.758574,8.14415694 192.926,7.446 C192.932216,7.23171542 193.025358,7.02918486 193.184,6.885 C193.211871,6.87976436 193.240677,6.88591467 193.26398,6.90207599 C193.287282,6.91823731 193.303137,6.94306188 193.308,6.971 C193.323997,7.06376819 193.330697,7.15790125 193.328,7.252 L193.328,9.906 L193.335,9.91 Z M200.097,4.25 C199.911537,3.46986673 199.57559,2.73343237 199.108,2.082 C198.793534,1.71986345 198.324855,1.52993907 197.847,1.571 C197.062333,1.54833333 196.681667,1.35833333 196.705,1.001 C196.705,0.701666667 196.938333,0.552 197.405,0.552 C198.631667,0.576 200.154,0.611333333 201.972,0.658 C203.79,0.634 205.176333,0.598666667 206.131,0.552 C206.687,0.528666667 206.976667,0.666333333 207,0.965 C207.017495,1.13650163 206.920317,1.29914353 206.761,1.365 C206.509178,1.41967724 206.251538,1.44285477 205.994,1.434 C205.487911,1.42793749 204.98703,1.53666109 204.529,1.752 C204.050154,2.01941726 203.775298,2.54517784 203.829,3.091 C203.840997,3.32293118 203.874474,3.55325038 203.929,3.779 C203.995667,4.09633333 204.075333,4.46066667 204.168,4.872 C204.361333,5.68266667 204.561333,6.47566667 204.768,7.251 L208.568,20.326 L208.636,20.326 L213.595,3.684 C213.777,3.084 213.941667,2.48666667 214.089,1.892 C214.203,1.306 214.294,0.896 214.362,0.662 L215.487,0.662 L221.349,20.172 L221.417,20.172 L223.582,12.95 C223.982,11.75 224.436333,10.1996667 224.945,8.299 C225.385849,6.90205863 225.665991,5.4594092 225.78,3.999 C225.834153,3.3771703 225.70997,2.75278536 225.422,2.199 C225.265966,1.93515279 225.015897,1.74009895 224.722,1.653 C224.202093,1.48131147 223.665959,1.36336185 223.122,1.301 C222.916417,1.26248768 222.77975,1.06616733 222.815,0.86 C222.792333,0.676 222.906,0.572666667 223.156,0.55 C223.950667,0.574 225.184,0.609333333 226.856,0.656 C227.81,0.632 228.743333,0.596666667 229.656,0.55 C230.056,0.55 230.266,0.679 230.286,0.937 C230.292708,1.07871079 230.213927,1.21066851 230.086,1.272 C229.744868,1.41170152 229.390833,1.51754341 229.029,1.588 C228.442158,1.7709457 227.959642,2.19282941 227.7,2.75 C227.410294,3.41705103 227.154304,4.09824401 226.933,4.791 L224.462,13.115 L222.262,20.224 L220.524,25.451 L219.356,25.451 C217.379333,18.795 215.527667,12.5913333 213.801,6.84 L213.732,6.84 C211.948,13.0733333 210.039333,19.277 208.006,25.451 L206.826,25.451 L200.097,4.25 Z M236.346,10.543 L236.296,10.543 L233.409,17.929 L239.088,17.929 L236.346,10.543 Z M236.787,7.443 L237.67,7.443 L243.056,21.831 C243.284589,22.46987 243.597705,23.0752504 243.987,23.631 C244.262431,24.0455839 244.71793,24.3052335 245.215,24.331 C245.782,24.363 246.04,24.439 245.991,24.559 C246.012818,24.6461501 245.985188,24.7382518 245.919,24.799 C245.773152,24.8639211 245.612726,24.8891063 245.454,24.872 C244.46,24.8393333 243.466,24.815 242.472,24.799 C241.476667,24.815 240.482333,24.8393333 239.489,24.872 C239.052333,24.888 238.841667,24.7836667 238.857,24.559 C238.825,24.423 239.104,24.347 239.692,24.331 C239.9827,24.3811165 240.280313,24.2949455 240.499265,24.0972637 C240.718218,23.899582 240.83425,23.6122927 240.814,23.318 C240.777159,22.9092483 240.705227,22.5044229 240.599,22.108 C240.445456,21.5751542 240.262169,21.0513327 240.05,20.539 L239.35,18.613 L233.15,18.613 L231.778,22.466 C231.693753,22.7078969 231.653452,22.9629124 231.659,23.219 C231.630382,23.5542893 231.803672,23.8745403 232.1,24.034 C232.389478,24.2087535 232.716605,24.3116236 233.054,24.334 C233.508,24.382 233.718,24.458 233.687,24.562 C233.708818,24.6491501 233.681188,24.7412518 233.615,24.802 C233.485518,24.8647142 233.341087,24.8899983 233.198,24.875 C232.434,24.8423333 231.670333,24.818 230.907,24.802 C230.136333,24.818 229.369667,24.8423333 228.607,24.875 C228.296,24.875 228.149,24.775 228.165,24.562 C228.132333,24.458 228.303333,24.382 228.678,24.334 C228.951,24.3027792 229.217125,24.2274672 229.466,24.111 C229.732421,23.9824713 229.970428,23.8019264 230.166,23.58 C230.829048,22.7085253 231.341159,21.7319657 231.681,20.691 L236.787,7.443 Z M255.519,8.995 C255.520047,8.90213787 255.503769,8.80989471 255.471,8.723 C255.329103,8.64043014 255.16906,8.59406567 255.005,8.588 C254.583,8.53866667 253.5,8.514 251.756,8.514 C251.019218,8.46967258 250.282418,8.60058295 249.606,8.896 C249.325413,9.04568807 249.093597,9.27264597 248.938,9.55 C248.746185,9.90888075 248.632045,10.3041123 248.603,10.71 C248.609622,10.9609536 248.573437,11.2112009 248.496,11.45 C248.44751,11.5491016 248.342876,11.6079828 248.233,11.598 C248.097,11.598 248.033,11.488 248.033,11.266 L248.033,8.201 C248.023249,8.09074379 248.066076,7.9823475 248.148554,7.90853075 C248.231032,7.83471401 248.343496,7.80412608 248.452,7.826 L265.196,7.826 C265.305341,7.80548859 265.417975,7.83741991 265.500283,7.91226353 C265.582591,7.98710716 265.625055,8.09620682 265.615,8.207 L265.615,11.268 C265.615,11.489 265.547,11.599 265.415,11.599 C265.315545,11.6139676 265.221523,11.5492453 265.2,11.451 C265.108097,11.2149756 265.05965,10.964272 265.057,10.711 C265.041738,10.3102258 264.948677,9.91624505 264.783,9.551 C264.624568,9.26276204 264.377302,9.03338351 264.078,8.897 C263.38886,8.6040951 262.641648,8.47340136 261.894,8.515 C260.166667,8.515 259.092333,8.53966667 258.671,8.589 C258.514779,8.59680679 258.362923,8.6431879 258.229,8.724 C258.167636,8.80139773 258.134166,8.89722786 258.134,8.996 L258.134,21.681 C258.079703,22.3785711 258.215884,23.0777917 258.528,23.704 C258.768879,24.1048389 259.206491,24.3454108 259.674,24.334 C259.921666,24.3241078 260.169687,24.3401957 260.414,24.382 C260.493054,24.4298872 260.538919,24.5177629 260.533,24.61 C260.533,24.786 260.377,24.875 260.063,24.875 C259.139,24.8423333 258.062333,24.818 256.833,24.802 C255.612333,24.818 254.531667,24.8423333 253.591,24.875 C253.277,24.875 253.121,24.786 253.121,24.61 C253.103664,24.5048407 253.171837,24.4045608 253.276,24.382 C253.50863,24.3383153 253.745598,24.3222042 253.982,24.334 C254.46503,24.3510425 254.921203,24.1119317 255.182,23.705 C255.458555,23.0679974 255.57758,22.3737446 255.529,21.681 L255.529,8.996 L255.519,8.995 Z M277.665,8.995 C277.666047,8.90213787 277.649769,8.80989471 277.617,8.723 C277.475103,8.64043014 277.31506,8.59406567 277.151,8.588 C276.729,8.53866667 275.646,8.514 273.902,8.514 C273.165218,8.46967258 272.428418,8.60058295 271.752,8.896 C271.471111,9.04562568 271.238956,9.27257543 271.083,9.55 C270.891976,9.9091377 270.778205,10.3042695 270.749,10.71 C270.755994,10.9610521 270.719454,11.2114188 270.641,11.45 C270.593081,11.5491483 270.488653,11.6081383 270.379,11.598 C270.243,11.598 270.179,11.488 270.179,11.266 L270.179,8.201 C270.169249,8.09074379 270.212076,7.9823475 270.294554,7.90853075 C270.377032,7.83471401 270.489496,7.80412608 270.598,7.826 L287.342,7.826 C287.451341,7.80548859 287.563975,7.83741991 287.646283,7.91226353 C287.728591,7.98710716 287.771055,8.09620682 287.761,8.207 L287.761,11.268 C287.761,11.489 287.693,11.599 287.561,11.599 C287.461545,11.6139676 287.367523,11.5492453 287.346,11.451 C287.254097,11.2149756 287.20565,10.964272 287.203,10.711 C287.187449,10.3101554 287.094046,9.91616698 286.928,9.551 C286.771259,9.26324778 286.525727,9.0338505 286.228,8.897 C285.53886,8.6040951 284.791648,8.47340136 284.044,8.515 C282.317333,8.515 281.243,8.53966667 280.821,8.589 C280.664779,8.59680679 280.512923,8.6431879 280.379,8.724 C280.315839,8.80073335 280.280583,8.89662773 280.279,8.996 L280.279,21.681 C280.224703,22.3785711 280.360884,23.0777917 280.673,23.704 C280.913879,24.1048389 281.351491,24.3454108 281.819,24.334 C282.066666,24.3241078 282.314687,24.3401957 282.559,24.382 C282.638054,24.4298872 282.683919,24.5177629 282.678,24.61 C282.678,24.786 282.521,24.875 282.208,24.875 C281.284,24.8423333 280.207333,24.818 278.978,24.802 C277.756,24.818 276.675333,24.8423333 275.736,24.875 C275.422,24.875 275.266,24.786 275.266,24.61 C275.248664,24.5048407 275.316837,24.4045608 275.421,24.382 C275.65363,24.3383153 275.890598,24.3222042 276.127,24.334 C276.61003,24.3510425 277.066203,24.1119317 277.327,23.705 C277.603555,23.0679974 277.72258,22.3737446 277.674,21.681 L277.674,8.996 L277.665,8.995 Z M295.24,11.024 C295.290062,10.3150937 295.175404,9.60421829 294.905,8.947 C294.642304,8.54308207 294.176537,8.31906671 293.697,8.366 C293.457522,8.37035838 293.218875,8.33660348 292.99,8.266 C292.94297,8.26988614 292.896935,8.25095796 292.86624,8.21511483 C292.835546,8.17927169 292.823925,8.1308718 292.835,8.085 C292.835,7.909 292.991,7.821 293.303,7.821 C295.256333,7.83833333 297.209,7.863 299.161,7.895 C301.130333,7.879 303.055333,7.85433333 304.936,7.821 C305.030442,7.79323486 305.132449,7.81166883 305.211201,7.87073238 C305.289952,7.92979593 305.336211,8.02256098 305.336,8.121 L305.336,10.978 C305.336,11.3113333 305.244667,11.4713333 305.062,11.458 C304.872863,11.4462996 304.726042,11.2884881 304.728,11.099 C304.764828,10.2838905 304.420814,9.49794272 303.797,8.972 C302.886085,8.52745837 301.869916,8.34367576 300.861,8.441 L299.25,8.441 C298.946867,8.43463537 298.643683,8.45101464 298.343,8.49 C298.205721,8.49256537 298.070887,8.52678721 297.949,8.59 C297.888229,8.67230724 297.854984,8.77169369 297.854,8.874 L297.854,15.737 C298.735948,15.7594715 299.611925,15.586325 300.419,15.23 C300.805774,15.0400201 301.141458,14.7602258 301.398,14.414 C301.657772,14.0527467 301.803049,13.6217952 301.815,13.177 C301.825854,12.9395972 301.866162,12.7044627 301.935,12.477 C301.983247,12.3852599 302.081712,12.3313008 302.185,12.34 C302.270273,12.327438 302.35647,12.3558841 302.417516,12.4167333 C302.478562,12.4775825 302.507286,12.5636871 302.495,12.649 C302.479,13.6923333 302.455333,14.744 302.424,15.804 C302.44,16.8473333 302.463667,17.8986667 302.495,18.958 C302.512162,19.0347665 302.491734,19.1151173 302.439991,19.1743651 C302.388247,19.2336129 302.311378,19.2646721 302.233,19.258 C302.186612,19.2666264 302.138725,19.2555853 302.100796,19.2275184 C302.062868,19.1994515 302.038311,19.1568838 302.033,19.11 C301.93414,18.885902 301.861977,18.650955 301.818,18.41 C301.733536,17.725903 301.336918,17.1195278 300.744,16.768 C300.099642,16.4787051 299.397994,16.3395381 298.692,16.361 L297.857,16.361 L297.857,21.014 C297.850947,21.4980123 297.890792,21.9815085 297.976,22.458 C298.060485,22.8243062 298.227763,23.1663895 298.465,23.458 C298.911,24.0013333 299.937333,24.273 301.544,24.273 C301.923274,24.2751553 302.302223,24.2504267 302.678,24.199 C302.981395,24.1731644 303.282309,24.1236807 303.578,24.051 C304.049747,23.94141 304.498347,23.7491046 304.903,23.483 C305.542671,23.0181342 305.958318,22.3065293 306.049,21.521 C306.128,21.044 306.267,20.813 306.466,20.83 C306.594,20.83 306.666,20.93 306.681,21.137 C306.681,21.4243333 306.665,21.8176667 306.633,22.317 C306.573037,22.7780321 306.539648,23.2421323 306.533,23.707 L306.533,24.568 C306.535792,24.6686035 306.491239,24.7646926 306.412651,24.8275633 C306.334062,24.890434 306.230537,24.9128074 306.133,24.888 C304.005,24.8553333 301.869333,24.831 299.726,24.815 C297.598,24.831 295.458333,24.8553333 293.307,24.888 C292.995,24.888 292.839,24.7993333 292.839,24.622 C292.822248,24.5171917 292.890285,24.4175509 292.994,24.395 C293.226963,24.351283 293.464266,24.3351719 293.701,24.347 C294.185582,24.3603042 294.642562,24.1219786 294.909,23.717 C295.177176,23.0777467 295.291907,22.3845694 295.244,21.693 L295.244,11.025 L295.24,11.024 Z M314.59,11.024 C314.639471,10.3154457 314.524832,9.60502909 314.255,8.948 C313.991976,8.5439188 313.525839,8.3199107 313.046,8.367 C312.806855,8.37128614 312.568548,8.33753166 312.34,8.267 C312.292931,8.27077608 312.246886,8.25186518 312.216058,8.21609679 C312.18523,8.18032839 312.17332,8.13199653 312.184,8.086 C312.184,7.91 312.339667,7.822 312.651,7.822 C313.584333,7.83933333 314.657333,7.864 315.87,7.896 C317.305333,7.88 318.733,7.85533333 320.153,7.822 C321.540719,7.74394685 322.914361,8.13490662 324.053,8.932 C324.956671,9.74380903 325.477378,10.8981589 325.48784,12.1128792 C325.498302,13.3275994 324.997554,14.4907467 324.108,15.318 C323.684763,15.6571102 323.205568,15.91972 322.692,16.094 C322.102476,16.3148014 321.497511,16.4919459 320.882,16.624 C322.66,18.7286667 324.441333,20.8246667 326.226,22.912 C326.514322,23.2067682 326.824906,23.4789053 327.155,23.726 C327.409053,23.9672686 327.702653,24.163115 328.023,24.305 C328.436333,24.3716667 328.642667,24.4956667 328.642,24.677 C328.642,24.8063333 328.503333,24.871 328.226,24.871 C328.026,24.871 327.733,24.8543333 327.347,24.821 C326.973667,24.805 326.609333,24.797 326.254,24.797 L324.446,24.797 C322.925333,22.793 321.392,20.801 319.846,18.821 C319.528387,18.328509 319.170851,17.8629432 318.777,17.429 C318.47153,17.1537266 318.070933,17.00812 317.66,17.023 C317.537538,17.0025908 317.412542,17.0402019 317.321676,17.1248005 C317.230811,17.2093992 317.184379,17.3313942 317.196,17.455 L317.196,21.676 C317.142046,22.3735468 317.277117,23.0727398 317.587,23.7 C317.82477,24.0995583 318.25916,24.3402492 318.724,24.33 C318.970005,24.3201708 319.216362,24.3362594 319.459,24.378 C319.537842,24.4259844 319.583354,24.5139226 319.577,24.606 C319.577,24.782 319.421,24.871 319.108,24.871 C318.186,24.8383333 317.111667,24.814 315.885,24.798 C314.667,24.814 313.588667,24.8383333 312.65,24.871 C312.338,24.871 312.181,24.782 312.181,24.606 C312.163725,24.5005255 312.232432,24.4001083 312.337,24.378 C312.56963,24.3343153 312.806598,24.3182042 313.043,24.33 C313.527934,24.3436544 313.985373,24.1052866 314.252,23.7 C314.519604,23.060582 314.634312,22.367541 314.587,21.676 L314.587,11.024 L314.59,11.024 Z M318.68,8.367 C317.693333,8.367 317.199667,8.544 317.199,8.898 L317.199,16.413 L318.313,16.413 C319.50433,16.5215771 320.696665,16.2160766 321.689,15.548 C322.474632,14.6433409 322.844344,13.450393 322.708,12.26 C322.816864,11.1153081 322.408248,9.9818936 321.594,9.17 C320.732006,8.60122878 319.711572,8.32108236 318.68,8.37 L318.68,8.37 L318.68,8.367 Z M332.772,20.114 C332.746193,20.0086966 332.770792,19.89738 332.838569,19.8127568 C332.906346,19.7281337 333.009602,19.6798159 333.118,19.682 C333.340667,19.682 333.46,19.8423333 333.476,20.163 C333.567365,20.5428997 333.691152,20.9142612 333.846,21.273 C334.036537,21.8131048 334.301418,22.3240193 334.633,22.791 C335.015052,23.3063857 335.497812,23.7387948 336.052,24.062 C336.666071,24.4674015 337.39172,24.6702337 338.127,24.642 C339.177533,24.7090257 340.206517,24.3232021 340.954,23.582 C341.547109,22.9520492 341.872004,22.1161428 341.86,21.251 C341.874725,20.6931339 341.756107,20.139808 341.514,19.637 C341.279391,19.1887404 340.935434,18.8069486 340.514,18.527 C340.095125,18.1883217 339.638814,17.8987657 339.154,17.664 C338.629333,17.434 338.096,17.208 337.554,16.986 C337.020667,16.7306667 336.5,16.4716667 335.992,16.209 C335.495936,15.9418289 335.031657,15.6194497 334.608,15.248 C334.208727,14.8487294 333.878264,14.3861497 333.63,13.879 C333.355506,13.2889553 333.220683,12.6435885 333.236,11.993 C333.154559,10.6230105 333.779748,9.3066042 334.893,8.504 C335.865033,7.81453653 337.027275,7.44412849 338.219,7.444 C338.743524,7.43312561 339.267577,7.4821088 339.781,7.59 C340.117569,7.67286039 340.439117,7.80782283 340.734,7.99 C340.988,8.129 341.207,8.254 341.39,8.368 C341.55896,8.49348201 341.763544,8.5617934 341.974,8.563 C342.081882,8.55553356 342.177397,8.49058341 342.224,8.393 C342.277117,8.29887332 342.317153,8.19794376 342.343,8.093 C342.318874,7.90743946 342.414751,7.7269191 342.582,7.643 C342.782,7.643 342.882,7.787 342.882,8.074 C342.896667,9.30333333 342.920333,10.5123333 342.953,11.701 C342.953,12.037 342.866,12.201 342.691,12.201 C342.574058,12.1553046 342.488483,12.0531421 342.464,11.93 C342.355186,11.725634 342.267081,11.510899 342.201,11.289 C341.961955,10.337943 341.422171,9.48950984 340.662,8.87 C339.98024,8.34701279 339.146236,8.06116893 338.287,8.056 C337.501244,8.0368136 336.736158,8.30893902 336.139,8.82 C335.551925,9.29954231 335.217557,10.0221022 335.232,10.78 C335.209737,11.7987744 335.756931,12.7450849 336.651,13.234 C337.109693,13.5428157 337.592213,13.8146723 338.094,14.047 C338.61,14.2936667 339.154667,14.5443333 339.728,14.799 C340.859224,15.2451795 341.907216,15.8787079 342.828,16.673 C343.255268,17.086257 343.595307,17.5810145 343.828,18.128 C344.089408,18.786384 344.214925,19.4908459 344.197,20.199 C344.253634,21.6694752 343.585954,23.0743317 342.41,23.959 C341.16453,24.8563383 339.654935,25.3117864 338.121,25.253 C337.547639,25.2492788 336.977798,25.1630617 336.429,24.997 C336.008672,24.8703296 335.601737,24.7028663 335.214,24.497 C334.927392,24.3360626 334.649042,24.1608422 334.38,23.972 C334.208413,23.8509588 334.005766,23.7815591 333.796,23.772 C333.714393,23.7734123 333.640695,23.8211219 333.606,23.895 C333.558,23.986 333.506,24.081 333.451,24.179 C333.420865,24.2735449 333.380984,24.3647013 333.332,24.451 C333.288433,24.5447546 333.196282,24.6064456 333.093,24.611 C332.984501,24.6069708 332.89184,24.5314544 332.866,24.426 C332.799163,24.3404732 332.763847,24.2345236 332.766,24.126 L332.766,20.104 L332.772,20.114 Z M356.684,20.772 C356.664196,19.5079557 357.072679,18.2744001 357.843,17.272 C359.233155,15.687247 360.860457,14.3274511 362.667,13.241 C361.025,10.7423333 360.204,8.54233333 360.204,6.641 C360.085232,4.76897736 360.764647,2.93419398 362.074,1.591 C363.062989,0.600840259 364.397759,0.0333030905 365.797,0.008 C367.043684,-0.0420744894 368.259995,0.400481875 369.183,1.24 C370.094699,2.13705887 370.584074,3.37811686 370.53,4.656 C370.529809,5.1868648 370.484647,5.71675932 370.395,6.24 C370.274764,6.84287883 370.052578,7.42083294 369.738,7.949 C368.655248,9.5854022 367.283939,11.0112649 365.691,12.157 C367.291,14.2903333 368.986333,16.357 370.777,18.357 C371.937599,16.8051451 372.940246,15.1412145 373.77,13.39 C374.225464,12.3969142 374.866259,11.4998697 375.658,10.747 C376.221951,10.3452172 376.905566,10.1467256 377.597,10.184 C378.282102,10.1472769 378.955345,10.3737183 379.479,10.817 C379.976533,11.3411691 380.229019,12.0513996 380.174,12.772 C380.191184,13.2756768 380.015171,13.7668691 379.682,14.145 C379.357375,14.535991 378.86756,14.7512575 378.36,14.726 C377.987386,14.7216597 377.630183,14.5766352 377.36,14.32 C377.032072,14.1065049 376.833619,13.7422983 376.832,13.351 C376.822056,13.0844479 376.845573,12.8177008 376.902,12.557 C376.927978,12.3805992 376.874155,12.2017824 376.755122,12.0690298 C376.636089,11.9362771 376.464179,11.8633426 376.286,11.87 C375.897513,11.9180003 375.554556,12.1467614 375.361,12.487 C374.995995,13.0271672 374.66984,13.5925915 374.385,14.179 C374.031,14.873 373.631,15.643 373.185,16.489 C372.64854,17.4017968 372.053633,18.2789592 371.404,19.115 C372.49904,20.3679873 373.717899,21.5071076 375.042,22.515 C375.688157,23.0803522 376.494654,23.429939 377.349,23.515 C377.743579,23.5276136 378.13386,23.4299568 378.476,23.233 C378.735781,23.101792 378.972259,22.9288251 379.176,22.721 C379.410195,22.3264827 379.801668,22.0507049 380.252,21.963 C380.434,21.963 380.542,22.109 380.576,22.401 C380.35785,23.1082916 379.897601,23.7161751 379.276,24.118 C378.798168,24.4888268 378.269837,24.7895278 377.707,25.011 C377.018658,25.2897251 376.284554,25.4382413 375.542,25.449 C374.591618,25.404125 373.661528,25.1583959 372.813,24.728 C371.445462,24.0117259 370.233977,23.0307091 369.249,21.842 C366.985667,24.2226667 364.575333,25.425 362.018,25.449 C360.592417,25.5089067 359.20096,25.0027916 358.147,24.041 C357.192429,23.2252442 356.654023,22.0243841 356.68,20.769 L356.68,20.769 L356.684,20.772 Z M359.743,19.135 C359.730605,20.2856932 360.129966,21.4029129 360.869,22.285 C361.205952,22.7157758 361.630685,23.0699469 362.115,23.324 C362.599305,23.6155963 363.1547,23.7678541 363.72,23.764 C365.659376,23.7036424 367.45895,22.7398494 368.584,21.159 C366.601991,18.8970401 364.744577,16.5288702 363.02,14.065 C360.835333,15.4263333 359.743,17.1163333 359.743,19.135 L359.743,19.135 L359.743,19.135 Z M362.28,4.218 C362.287648,5.28155385 362.498779,6.33381599 362.902,7.318 C363.476512,8.72646305 364.203511,10.0677886 365.07,11.318 C366.131039,10.542771 366.994387,9.52833665 367.59,8.357 C368.02518,7.35554991 368.248525,6.27491458 368.246,5.183 C368.315073,4.01344044 368.008868,2.85238207 367.372,1.869 C366.889771,1.18670051 366.107503,0.779548439 365.272,0.776 C364.535859,0.787850697 363.829893,1.07052192 363.289,1.57 C362.5895,2.26696087 362.22217,3.23024617 362.28,4.216 L362.28,4.216 L362.28,4.218 Z M415.721,23.851 C415.721,24.227 415.580333,24.415 415.299,24.415 C414.996333,24.4503333 414.844667,24.1976667 414.844,23.657 C414.864036,23.4868525 414.802748,23.3172076 414.678593,23.199152 C414.554438,23.0810964 414.381923,23.0284253 414.213,23.057 C413.886026,23.0858557 413.573946,23.2068734 413.313,23.406 C412.971667,23.628 412.538333,23.9016667 412.013,24.227 C411.742255,24.3987541 411.449629,24.5332947 411.143,24.627 C410.770187,24.7775468 410.388865,24.9061008 410.001,25.012 C408.963696,25.3078522 407.889653,25.454986 406.811,25.449 C402.647667,25.4023333 399.514333,24.2113333 397.411,21.876 C395.267865,19.575692 394.126788,16.5179503 394.239,13.376 C394.284333,8.836 395.586,5.46933333 398.144,3.276 C400.581652,1.11725892 403.739319,-0.0504105292 406.995,0.003 C407.950189,-0.013555195 408.904547,0.0682086181 409.843,0.247 C410.497519,0.400828449 411.132306,0.628976269 411.735,0.927 C412.144525,1.10693893 412.543202,1.31061835 412.929,1.537 C413.134196,1.71958893 413.390308,1.83508346 413.663,1.868 C413.84948,1.8781571 414.023943,1.77576333 414.106,1.608 C414.203782,1.50117888 414.269008,1.3686443 414.294,1.226 C414.234603,0.936437215 414.415562,0.651947659 414.703,0.583 C414.825773,0.591345052 414.939051,0.652009842 415.014042,0.749575428 C415.089034,0.847141015 415.118518,0.972212159 415.095,1.093 C415.095,1.995 415.140667,2.91433333 415.232,3.851 C415.322,4.81166667 415.367333,5.784 415.368,6.768 C415.368,7.31866667 415.254333,7.606 415.027,7.63 C414.876167,7.62865243 414.744253,7.52808856 414.703,7.383 C414.563225,7.07342589 414.46019,6.74854596 414.396,6.415 C414.297778,5.8196619 414.107856,5.24314925 413.833,4.706 C413.482,4.02402892 413.020796,3.40469805 412.468,2.873 C411.834365,2.2363994 411.088497,1.72242884 410.268,1.357 C409.249231,0.948560028 408.158323,0.750584058 407.061,0.775 C406.029728,0.777266909 405.009464,0.987101216 404.061,1.392 C402.997859,1.86599645 402.062518,2.58575314 401.332,3.492 C400.412162,4.64577122 399.732179,5.97173711 399.332,7.392 C398.774925,9.36336108 398.516057,11.4070013 398.564,13.455 C398.516939,15.2598373 398.800264,17.0580705 399.4,18.761 C399.842642,20.0556651 400.558875,21.2398366 401.5,22.233 C402.293429,23.0436666 403.247013,23.6801839 404.3,24.102 C405.175125,24.4724832 406.113776,24.6697901 407.064,24.683 C409.486,24.6356667 411.266,23.9023333 412.404,22.483 C413.52919,21.131526 414.328765,19.5395602 414.741,17.83 C415.025,16.8433333 415.235333,16.385 415.372,16.455 C415.439809,16.4428239 415.509672,16.4582738 415.566023,16.4979077 C415.622375,16.5375417 415.660534,16.5980671 415.672,16.666 C415.713249,16.8928887 415.730345,17.1235091 415.723,17.354 L415.723,23.854 L415.721,23.851 Z M423.409,16.351 C423.322379,13.9426373 424.252953,11.6089436 425.973,9.921 C429.705729,6.61952586 435.314271,6.61952586 439.047,9.921 C440.753688,11.6161555 441.674823,13.9470869 441.588,16.351 C441.671713,18.7399427 440.750004,21.0545518 439.047,22.732 C435.339273,26.0988328 429.680727,26.0988328 425.973,22.732 C424.2566,21.0618326 423.325426,18.7444291 423.409,16.351 L423.409,16.351 L423.409,16.351 Z M426.437,16.351 C426.403546,18.3477876 426.919315,20.3153893 427.928,22.039 C428.821469,23.7248863 430.590511,24.7615369 432.498,24.717 C434.410843,24.7583092 436.1854,23.7238589 437.092,22.039 C438.086507,20.31056 438.593834,18.3448418 438.56,16.351 C438.593507,14.3416811 438.086497,12.3602703 437.092,10.614 C436.169107,8.9512782 434.39909,7.93873871 432.498,7.986 C430.602376,7.93567881 428.837972,8.95030741 427.928,10.614 C426.919341,12.3554928 426.403905,14.3387638 426.437,16.351 L426.437,16.351 L426.437,16.351 Z M448.744,23.307 C448.737629,22.7513934 448.966902,22.2190879 449.375,21.842 C449.728588,21.4669486 450.223614,21.2579053 450.739,21.266 C451.274669,21.2575951 451.791165,21.4652028 452.172,21.842 C452.533194,22.2433573 452.728056,22.7671607 452.717,23.307 C452.727489,23.8258696 452.53145,24.3276586 452.172,24.702 C451.798262,25.0978144 451.283104,25.3296892 450.739,25.347 C450.214796,25.3294826 449.721151,25.0960507 449.375,24.702 C448.969681,24.3524751 448.738863,23.8421864 448.744,23.307 L448.744,23.307 L448.744,23.307 Z" id="logo.r51_2x.svg"></path>
        </g>
    </g>
</svg>