<svg xmlns="http://www.w3.org/2000/svg" width="296.875" height="62.437" viewBox="0 0 296.875 62.437">
  <defs>
    <style>
      .cls-1 {
        fill: #121212;
        fill-rule: evenodd;
      }
    </style>
  </defs>
  <path id="logo.r48_2x.svg" data-name="logo.r48@2x.svg" class="cls-1" d="M34,50.5v-1h9.5v1H34ZM12.023,4.653H11.955l-4.12,10.54h8.1Zm0.63-4.421h1.26l7.695,20.53a10.821,10.821,0,0,0,1.328,2.568,2.244,2.244,0,0,0,1.753,1Q25.9,24.4,25.8,24.659a0.351,0.351,0,0,1-.1.343,1.314,1.314,0,0,1-.664.1Q22.9,25.037,20.773,25q-2.128.034-4.256,0.1-0.936.035-.9-0.446-0.068-.291,1.192-0.326,1.634-.071,1.6-1.445a10.175,10.175,0,0,0-.306-1.727,21.033,21.033,0,0,0-.783-2.238l-1-2.749H7.461L5.5,21.673a3.078,3.078,0,0,0-.17,1.075,1.2,1.2,0,0,0,.63,1.163,3.026,3.026,0,0,0,1.362.423q0.97,0.1.9,0.326a0.351,0.351,0,0,1-.1.343,1.118,1.118,0,0,1-.6.1Q5.895,25.037,4.261,25q-1.651.034-3.285,0.1-0.665,0-.63-0.446-0.07-.222.732-0.326A3.647,3.647,0,0,0,2.2,24.016a3.192,3.192,0,0,0,1-.758,14.02,14.02,0,0,0,2.162-4.124ZM33.13,10.493a2,2,0,0,0-.417-1.077,2.435,2.435,0,0,0-1.419-.772q-0.86-.1-0.835-0.38,0-.245.346-0.22,0.561,0.025,2,.074,1.026,0,2.052-.074L45.288,21.5h0.048V11.244A3.874,3.874,0,0,0,45,9.3a1.784,1.784,0,0,0-1.228-.579,2.463,2.463,0,0,1-.68-0.2,0.189,0.189,0,0,1-.143-0.209q0-.269.465-0.269,1.145,0.025,2.29.074,1.145-.025,2.3-0.074,0.465,0,.465.271a0.239,0.239,0,0,1-.107.209,2.605,2.605,0,0,1-.729.2,1.626,1.626,0,0,0-1.171.578,3.362,3.362,0,0,0-.394,1.944V25.455H45.262L33.914,10.75H33.866V21.872a3.259,3.259,0,0,0,.393,1.9,1.548,1.548,0,0,0,1.169.628,3.908,3.908,0,0,1,.727.172,0.264,0.264,0,0,1,.107.234q0,0.271-.466.271-1.158-.048-2.3-0.072-1.146.024-2.293,0.072-0.466,0-.466-0.27a0.2,0.2,0,0,1,.143-0.233,3.815,3.815,0,0,1,.68-0.172,1.7,1.7,0,0,0,1.228-.626,3.606,3.606,0,0,0,.346-1.89V10.493Zm23.364,0.741a4.591,4.591,0,0,0-.335-2.071,1.293,1.293,0,0,0-1.208-.579,2.251,2.251,0,0,1-.706-0.1,0.143,0.143,0,0,1-.144-0.18q0-.264.454-0.264,1.4,0.025,3.212.074,1.851-.025,3.69-0.074a9.688,9.688,0,0,1,6.508,2.166,8.142,8.142,0,0,1,2.591,6.423,9.035,9.035,0,0,1-1.91,6q-1.982,2.387-6.436,2.436-1.97-.048-4.442-0.072-1.815.024-3.212,0.072-0.454,0-.454-0.265a0.2,0.2,0,0,1,.144-0.228,3.019,3.019,0,0,1,.706-0.048,1.4,1.4,0,0,0,1.208-.628,4.442,4.442,0,0,0,.335-2.021V11.234Zm11.037,5.83a14.731,14.731,0,0,0-.581-4.388A5.8,5.8,0,0,0,65.4,10.125,5.021,5.021,0,0,0,63.381,8.9a9.728,9.728,0,0,0-2.146-.246H60.1a1.424,1.424,0,0,0-.794.148,0.823,0.823,0,0,0-.2.629v11.7q0,0.32.024,0.678,0,0.358.024,0.653a3.315,3.315,0,0,0,.13.555,1.685,1.685,0,0,0,.213.505,1.8,1.8,0,0,0,.925.653,4.16,4.16,0,0,0,1.719.284,5.354,5.354,0,0,0,2.893-.678,4.08,4.08,0,0,0,1.625-1.7,8.23,8.23,0,0,0,.735-2.391,24.02,24.02,0,0,0,.142-2.625h0Zm11.035-5.825a4.609,4.609,0,0,0-.335-2.074,1.291,1.291,0,0,0-1.207-.58,2.248,2.248,0,0,1-.705-0.1,0.147,0.147,0,0,1-.155-0.18q0-.264.466-0.264,1.4,0.025,3.215.074Q82,8.093,84.123,8.044a6.186,6.186,0,0,1,3.9,1.108A3.9,3.9,0,0,1,89.454,12.4a3.923,3.923,0,0,1-1.379,3.128,4.64,4.64,0,0,1-1.415.776,13.005,13.005,0,0,1-1.807.529q2.663,3.153,5.338,6.281a8.046,8.046,0,0,0,.927.813,3.065,3.065,0,0,0,.868.579q0.618,0.1.618,0.371,0,0.194-.415.194-0.3,0-.878-0.049Q90.752,25,90.218,25h-1.8q-2.28-3-4.594-5.969a10.7,10.7,0,0,0-1.068-1.391,1.58,1.58,0,0,0-1.116-.406,0.4,0.4,0,0,0-.463.431v4.217a3.893,3.893,0,0,0,.391,2.022,1.287,1.287,0,0,0,1.136.629,3.5,3.5,0,0,1,.734.048,0.247,0.247,0,0,1,.118.228q0,0.264-.468.264Q81.7,25.026,79.863,25q-1.826.024-3.231,0.072-0.469,0-.468-0.264a0.2,0.2,0,0,1,.155-0.228,3.011,3.011,0,0,1,.705-0.048,1.4,1.4,0,0,0,1.207-.629,4.447,4.447,0,0,0,.335-2.022V11.239Zm4.086-2.654q-1.479,0-1.479.531v7.506h1.112a5.191,5.191,0,0,0,3.372-.864,4.266,4.266,0,0,0,1.018-3.284,3.845,3.845,0,0,0-1.112-3.087,4.865,4.865,0,0,0-2.911-.8h0ZM99.285,11.24a4.612,4.612,0,0,0-.335-2.075,1.291,1.291,0,0,0-1.207-.58,2.247,2.247,0,0,1-.705-0.1,0.147,0.147,0,0,1-.155-0.18q0-.264.468-0.264,2.926,0.025,5.852.074,2.949-.025,5.768-0.074a0.311,0.311,0,0,1,.395.3v2.853q0,0.5-.274.479a0.356,0.356,0,0,1-.334-0.358,2.622,2.622,0,0,0-.929-2.124,5.486,5.486,0,0,0-2.933-.531h-1.609a6.045,6.045,0,0,0-.906.049,0.881,0.881,0,0,0-.394.1,0.49,0.49,0,0,0-.095.284v6.854a5.956,5.956,0,0,0,2.563-.506,2.693,2.693,0,0,0,.977-0.815,2.214,2.214,0,0,0,.417-1.235,2.873,2.873,0,0,1,.12-0.7,0.258,0.258,0,0,1,.25-0.136,0.273,0.273,0,0,1,.31.308q-0.024,1.564-.072,3.152,0.024,1.563.072,3.151a0.248,0.248,0,0,1-.262.3,0.171,0.171,0,0,1-.2-0.148,3.133,3.133,0,0,1-.215-0.7,2.223,2.223,0,0,0-1.072-1.64,4.658,4.658,0,0,0-2.051-.407h-0.834v4.648a7.719,7.719,0,0,0,.119,1.442,2.474,2.474,0,0,0,.489,1q0.668,0.814,3.076.814a7.949,7.949,0,0,0,1.132-.074,5.817,5.817,0,0,0,.894-0.148,4.1,4.1,0,0,0,1.324-.567,2.818,2.818,0,0,0,1.144-1.96q0.118-.715.417-0.69c0.127,0,.2.1,0.215,0.307q0,0.43-.048,1.179a12.072,12.072,0,0,0-.1,1.388v0.86a0.32,0.32,0,0,1-.395.319q-3.189-.048-6.4-0.072-3.187.024-6.412,0.072-0.468,0-.467-0.265a0.2,0.2,0,0,1,.155-0.228,3.014,3.014,0,0,1,.705-0.048A1.4,1.4,0,0,0,98.95,23.9a4.446,4.446,0,0,0,.335-2.022V11.24Zm18.537-.61a4.306,4.306,0,0,0-.691-1.516,1.048,1.048,0,0,0-.882-0.357q-0.823-.024-0.8-0.4,0-.314.488-0.314,1.287,0.025,3.194.074,1.907-.025,2.907-0.074c0.39-.016.592,0.08,0.608,0.289a0.274,0.274,0,0,1-.167.277,2.2,2.2,0,0,1-.536.048,2.351,2.351,0,0,0-1.025.222,0.966,0.966,0,0,0-.488.937,2.569,2.569,0,0,0,.071.481c0.048,0.222.1,0.477,0.167,0.764q0.2,0.851.417,1.664l2.657,9.142h0.048l3.468-11.637q0.191-.626.345-1.253c0.08-.41.143-0.7,0.191-0.86h0.786l4.1,13.642h0.047l1.514-5.05q0.417-1.256.953-3.252a13.5,13.5,0,0,0,.584-3.005,2.3,2.3,0,0,0-.25-1.256,0.85,0.85,0,0,0-.489-0.382,5.647,5.647,0,0,0-1.12-.246,0.268,0.268,0,0,1-.215-0.308c-0.016-.128.064-0.2,0.239-0.217l2.586,0.074q1-.025,1.954-0.074,0.417,0,.441.271a0.246,0.246,0,0,1-.143.234,3.936,3.936,0,0,1-.739.221,1.522,1.522,0,0,0-.929.812,15.1,15.1,0,0,0-.537,1.427l-1.728,5.82L133.313,21.8,132.1,25.455h-0.811q-2.073-6.981-3.884-13.013h-0.048q-1.871,6.538-4,13.013h-0.822Zm-113.1,30.7a6.562,6.562,0,0,0-.478-2.958,1.845,1.845,0,0,0-1.725-.828,3.214,3.214,0,0,1-1.008-.137,0.21,0.21,0,0,1-.222-0.257q0-.377.663-0.377,1.292,0.036,2.585.106,1.292-.035,2.568-0.106H7.7a0.6,0.6,0,0,1,.629.352L16,55.58l7.584-18.27a0.636,0.636,0,0,1,.605-0.532q1.452,0.036,2.9.106,1.452-.035,2.9-0.106,0.674,0,.674.377a0.225,0.225,0,0,1-.188.257,3.65,3.65,0,0,1-1.042.137,1.7,1.7,0,0,0-1.64.828,5.687,5.687,0,0,0-.564,2.958V56.548a5.506,5.506,0,0,0,.564,2.887,1.837,1.837,0,0,0,1.64.9,4.835,4.835,0,0,1,1.042.069,0.345,0.345,0,0,1,.188.326q0,0.377-.671.377-1.977-.069-4.607-0.1-2.613.034-4.625,0.1-0.671,0-.67-0.377a0.288,0.288,0,0,1,.221-0.326,4.264,4.264,0,0,1,1-.069,1.94,1.94,0,0,0,1.7-.9,6.155,6.155,0,0,0,.5-2.888V40.306h-0.07L15.017,60.527a0.508,0.508,0,0,1-.374.473,0.542,0.542,0,0,1-.459-0.44L5.842,39.926H5.774V56.548a5.678,5.678,0,0,0,.544,2.887,1.866,1.866,0,0,0,1.648.9A4.78,4.78,0,0,1,9,60.4a0.353,0.353,0,0,1,.17.326q0,0.377-.664.377Q6.873,61.037,5.239,61q-1.634.034-3.286,0.1-0.664,0-.664-0.377A0.289,0.289,0,0,1,1.512,60.4a4.3,4.3,0,0,1,1.008-.069,2,2,0,0,0,1.725-.9,6.35,6.35,0,0,0,.478-2.888V41.335Zm38.139,4.79q0,0.23-.172.23-0.186.022-.186-0.309a0.222,0.222,0,0,0-.257-0.244,0.709,0.709,0,0,0-.369.142q-0.209.136-.528,0.335a1.477,1.477,0,0,1-.355.164,4.142,4.142,0,0,1-.466.157,4.639,4.639,0,0,1-1.3.178A4.977,4.977,0,0,1,35.4,45.321,4.831,4.831,0,0,1,34.1,41.856,5.2,5.2,0,0,1,35.7,37.739,5.311,5.311,0,0,1,39.3,36.4a5.679,5.679,0,0,1,1.161.1,3.622,3.622,0,0,1,.772.277,4.7,4.7,0,0,1,.487.249,0.548,0.548,0,0,0,.3.135,0.189,0.189,0,0,0,.181-0.106,0.307,0.307,0,0,0,.077-0.156,0.223,0.223,0,0,1,.167-0.262,0.174,0.174,0,0,1,.16.208q0,0.551.056,1.124t0.056,1.189q0,0.337-.139.351a0.139,0.139,0,0,1-.132-0.1,1.79,1.79,0,0,1-.125-0.395,2.369,2.369,0,0,0-.23-0.7,2.837,2.837,0,0,0-.556-0.747,2.974,2.974,0,0,0-.9-0.618,3.318,3.318,0,0,0-1.307-.237,3.131,3.131,0,0,0-1.224.252,3,3,0,0,0-1.113.855,4.514,4.514,0,0,0-.814,1.588,8.37,8.37,0,0,0-.313,2.472,6.034,6.034,0,0,0,.341,2.163,3.887,3.887,0,0,0,.855,1.416,3.327,3.327,0,0,0,1.141.762,2.991,2.991,0,0,0,1.127.237,2.691,2.691,0,0,0,2.177-.9,4.674,4.674,0,0,0,.953-1.9,0.791,0.791,0,0,1,.257-0.56,0.105,0.105,0,0,1,.124.086,1.343,1.343,0,0,1,.021.28v2.651Zm6.754-5.653a6.148,6.148,0,0,0-.987-2.166,1.5,1.5,0,0,0-1.259-.511q-1.176-.035-1.141-0.569,0-.448.7-0.449,1.838,0.036,4.562.106,2.724-.035,4.154-0.106,0.834-.035.868,0.413a0.391,0.391,0,0,1-.238.4,3.153,3.153,0,0,1-.766.069,3.354,3.354,0,0,0-1.464.317,1.379,1.379,0,0,0-.7,1.338,3.723,3.723,0,0,0,.1.687q0.1,0.476.238,1.092,0.289,1.215.6,2.377l3.8,13.06h0.068L63.1,39.9q0.272-.895.493-1.79,0.17-.878.273-1.229h1.124l5.856,19.488h0.068l2.162-7.214q0.6-1.795,1.362-4.645a19.243,19.243,0,0,0,.834-4.293,3.285,3.285,0,0,0-.358-1.795,1.214,1.214,0,0,0-.7-0.545,8.062,8.062,0,0,0-1.6-.352,0.383,0.383,0,0,1-.306-0.44q-0.034-.275.341-0.31,1.191,0.036,3.694.106,1.43-.035,2.792-0.106,0.6,0,.63.387a0.351,0.351,0,0,1-.2.334,5.6,5.6,0,0,1-1.055.317,2.176,2.176,0,0,0-1.328,1.16,21.633,21.633,0,0,0-.766,2.039l-2.468,8.314-2.2,7.1L70.009,61.65H68.851q-2.962-9.972-5.55-18.59H63.233Q60.56,52.4,57.514,61.65H56.339Zm36.209,6.286H85.776l-2.884,7.378h5.672Zm0.441-3.094h0.882l5.386,14.371a7.575,7.575,0,0,0,.929,1.8,1.571,1.571,0,0,0,1.227.7q0.848,0.048.775,0.228a0.246,0.246,0,0,1-.072.24,0.918,0.918,0,0,1-.465.072q-1.49-.048-2.979-0.072-1.49.024-2.979,0.072-0.656.025-.632-0.312-0.048-.2.834-0.228a0.959,0.959,0,0,0,1.12-1.011,7.12,7.12,0,0,0-.215-1.209,14.744,14.744,0,0,0-.548-1.567l-0.7-1.925h-6.2l-1.37,3.849a2.155,2.155,0,0,0-.119.752,0.843,0.843,0,0,0,.441.814,2.117,2.117,0,0,0,.953.3q0.679,0.072.632,0.228A0.246,0.246,0,0,1,83.1,61a0.782,0.782,0,0,1-.417.072Q81.534,61.026,80.39,61q-1.156.024-2.3,0.072-0.465,0-.441-0.312-0.049-.156.512-0.228a2.554,2.554,0,0,0,.787-0.222,2.236,2.236,0,0,0,.7-0.53,9.817,9.817,0,0,0,1.513-2.887Zm18.711,1.55a0.742,0.742,0,0,0-.048-0.271,0.993,0.993,0,0,0-.465-0.136q-0.633-.074-3.246-0.074a4.666,4.666,0,0,0-2.147.382,1.657,1.657,0,0,0-.668.653,2.9,2.9,0,0,0-.334,1.158,2.185,2.185,0,0,1-.108.74,0.267,0.267,0,0,1-.262.148q-0.2,0-.2-0.332V44.418a0.351,0.351,0,0,1,.419-0.374h16.725a0.355,0.355,0,0,1,.419.381v3.057c0,0.221-.068.331-0.2,0.331a0.192,0.192,0,0,1-.215-0.148,2.123,2.123,0,0,1-.143-0.74,3.083,3.083,0,0,0-.274-1.158,1.519,1.519,0,0,0-.7-0.653,4.89,4.89,0,0,0-2.182-.382q-2.587,0-3.22.074a0.936,0.936,0,0,0-.441.136,0.437,0.437,0,0,0-.1.271V57.884a3.869,3.869,0,0,0,.393,2.021,1.3,1.3,0,0,0,1.145.629,3.543,3.543,0,0,1,.739.048,0.247,0.247,0,0,1,.12.228q0,0.264-.47.264-1.385-.048-3.227-0.072-1.83.024-3.238,0.072-0.469,0-.47-0.264a0.2,0.2,0,0,1,.156-0.228,3,3,0,0,1,.7-0.048,1.365,1.365,0,0,0,1.2-.629,4.31,4.31,0,0,0,.347-2.021V45.213Zm22.121,0a0.742,0.742,0,0,0-.048-0.271,0.993,0.993,0,0,0-.465-0.136q-0.633-.074-3.245-0.074a4.669,4.669,0,0,0-2.148.382,1.659,1.659,0,0,0-.668.653,2.908,2.908,0,0,0-.334,1.158,2.175,2.175,0,0,1-.108.74,0.266,0.266,0,0,1-.262.148c-0.135,0-.2-0.111-0.2-0.332V44.418a0.351,0.351,0,0,1,.419-0.374H136.76a0.354,0.354,0,0,1,.419.381v3.057c0,0.221-.068.331-0.2,0.331a0.191,0.191,0,0,1-.214-0.148,2.075,2.075,0,0,1-.143-0.74,3.082,3.082,0,0,0-.275-1.158,1.519,1.519,0,0,0-.7-0.653,4.888,4.888,0,0,0-2.182-.382q-2.587,0-3.219.074a0.928,0.928,0,0,0-.441.136,0.432,0.432,0,0,0-.1.271V57.884A3.858,3.858,0,0,0,130.1,59.9a1.3,1.3,0,0,0,1.144.629,3.562,3.562,0,0,1,.74.048,0.248,0.248,0,0,1,.119.228q0,0.264-.47.264Q130.246,61.026,128.4,61q-1.83.024-3.239,0.072-0.469,0-.469-0.264a0.2,0.2,0,0,1,.155-0.228,3,3,0,0,1,.7-0.048,1.365,1.365,0,0,0,1.194-.629,4.31,4.31,0,0,0,.347-2.021V45.213Zm17.556,2.027a4.612,4.612,0,0,0-.335-2.075,1.29,1.29,0,0,0-1.207-.58,2.244,2.244,0,0,1-.7-0.1,0.148,0.148,0,0,1-.156-0.18q0-.264.468-0.264,2.927,0.025,5.852.074,2.951-.025,5.768-0.074a0.312,0.312,0,0,1,.4.3v2.853c0,0.336-.092.5-0.274,0.48a0.356,0.356,0,0,1-.334-0.358,2.626,2.626,0,0,0-.93-2.124,5.483,5.483,0,0,0-2.932-.531h-1.61a6.073,6.073,0,0,0-.906.049,0.871,0.871,0,0,0-.393.1,0.484,0.484,0,0,0-.1.284v6.854a5.953,5.953,0,0,0,2.563-.506,2.7,2.7,0,0,0,.978-0.815,2.214,2.214,0,0,0,.417-1.235,2.888,2.888,0,0,1,.119-0.7,0.259,0.259,0,0,1,.25-0.136,0.273,0.273,0,0,1,.31.308q-0.024,1.564-.071,3.152,0.023,1.563.071,3.151a0.247,0.247,0,0,1-.262.3,0.171,0.171,0,0,1-.2-0.148,3.147,3.147,0,0,1-.214-0.7,2.224,2.224,0,0,0-1.073-1.64,4.654,4.654,0,0,0-2.05-.407h-0.835v4.648a7.628,7.628,0,0,0,.12,1.442,2.473,2.473,0,0,0,.488,1q0.668,0.814,3.076.814a7.964,7.964,0,0,0,1.133-.074,5.858,5.858,0,0,0,.894-0.148,4.1,4.1,0,0,0,1.323-.567,2.814,2.814,0,0,0,1.144-1.96q0.12-.715.418-0.69c0.127,0,.2.1,0.214,0.307q0,0.43-.048,1.179a12.072,12.072,0,0,0-.1,1.388v0.86a0.32,0.32,0,0,1-.4.319q-3.187-.048-6.4-0.072-3.189.024-6.412,0.072-0.468,0-.468-0.265a0.2,0.2,0,0,1,.156-0.227,3.006,3.006,0,0,1,.7-0.048,1.4,1.4,0,0,0,1.207-.629,4.445,4.445,0,0,0,.335-2.022V47.24Zm19.328,0a4.611,4.611,0,0,0-.334-2.074,1.292,1.292,0,0,0-1.208-.58,2.249,2.249,0,0,1-.7-0.1,0.147,0.147,0,0,1-.155-0.18q0-.264.466-0.264,1.4,0.025,3.215.074,2.151-.025,4.278-0.074a6.184,6.184,0,0,1,3.9,1.108,4.319,4.319,0,0,1,.056,6.379,4.645,4.645,0,0,1-1.415.776,12.983,12.983,0,0,1-1.807.529q2.662,3.153,5.338,6.281a7.983,7.983,0,0,0,.927.813,3.064,3.064,0,0,0,.868.579q0.618,0.1.618,0.371c0,0.129-.139.194-0.415,0.194q-0.3,0-.879-0.049Q176.167,61,175.633,61h-1.8q-2.28-3-4.594-5.969a10.808,10.808,0,0,0-1.068-1.391,1.58,1.58,0,0,0-1.116-.406,0.4,0.4,0,0,0-.463.431v4.217a3.9,3.9,0,0,0,.39,2.022,1.288,1.288,0,0,0,1.136.629,3.5,3.5,0,0,1,.734.048,0.247,0.247,0,0,1,.118.228q0,0.264-.468.264-1.381-.048-3.22-0.072-1.825.024-3.231,0.072-0.468,0-.468-0.264a0.2,0.2,0,0,1,.155-0.228,3.007,3.007,0,0,1,.7-0.048,1.4,1.4,0,0,0,1.208-.629,4.449,4.449,0,0,0,.334-2.022V47.239Zm4.086-2.654q-1.479,0-1.479.531v7.506H167.7a5.193,5.193,0,0,0,3.373-.864,4.267,4.267,0,0,0,1.017-3.284,3.844,3.844,0,0,0-1.112-3.087,4.865,4.865,0,0,0-2.911-.8h0Zm14.076,11.734a0.349,0.349,0,0,1,.346-0.431q0.333,0,.357.481a6.8,6.8,0,0,0,.37,1.109A6.155,6.155,0,0,0,184,58.992a4.717,4.717,0,0,0,1.418,1.269,3.512,3.512,0,0,0,2.073.579,3.673,3.673,0,0,0,2.823-1.059,3.324,3.324,0,0,0,.906-2.328,3.514,3.514,0,0,0-.346-1.613,3,3,0,0,0-1-1.108,7,7,0,0,0-1.358-.862q-0.786-.345-1.6-0.677-0.8-.382-1.561-0.776a7.514,7.514,0,0,1-1.382-.961A5.134,5.134,0,0,1,183,50.091a4.228,4.228,0,0,1-.393-1.884,4,4,0,0,1,1.655-3.485,5.737,5.737,0,0,1,3.322-1.059,6.863,6.863,0,0,1,1.56.146,3.319,3.319,0,0,1,.953.4q0.381,0.207.654,0.377a0.99,0.99,0,0,0,.584.195,0.3,0.3,0,0,0,.25-0.17,1.189,1.189,0,0,0,.119-0.3,0.441,0.441,0,0,1,.238-0.449c0.2,0,.3.143,0.3,0.43q0.022,1.842.071,3.623,0,0.5-.262.5a0.368,0.368,0,0,1-.227-0.271,3.528,3.528,0,0,1-.262-0.64,4.541,4.541,0,0,0-1.538-2.416,3.936,3.936,0,0,0-2.372-.813,3.185,3.185,0,0,0-2.146.763A2.468,2.468,0,0,0,184.6,47a2.725,2.725,0,0,0,1.418,2.451,10.462,10.462,0,0,0,1.441.813q0.774,0.37,1.632.751a10.8,10.8,0,0,1,3.1,1.872,4.42,4.42,0,0,1,1,1.453,5.242,5.242,0,0,1,.369,2.069,4.489,4.489,0,0,1-1.785,3.756,6.882,6.882,0,0,1-4.285,1.293,5.989,5.989,0,0,1-1.69-.256,6.656,6.656,0,0,1-1.213-.5,9.643,9.643,0,0,1-.834-0.525,1.1,1.1,0,0,0-.583-0.2,0.214,0.214,0,0,0-.19.123c-0.048.09-.1,0.185-0.155,0.283a1.372,1.372,0,0,1-.119.271,0.276,0.276,0,0,1-.238.16,0.24,0.24,0,0,1-.226-0.185,0.467,0.467,0,0,1-.1-0.3V56.318Zm17.484,0.657a5.6,5.6,0,0,1,1.157-3.5A20.405,20.405,0,0,1,205.6,49.45a12.5,12.5,0,0,1-2.46-6.591,6.625,6.625,0,0,1,1.868-5.044,5.4,5.4,0,0,1,3.718-1.582,4.747,4.747,0,0,1,3.383,1.231,4.519,4.519,0,0,1,1.346,3.412,9.394,9.394,0,0,1-.135,1.583,5.392,5.392,0,0,1-.657,1.706,16.145,16.145,0,0,1-4.042,4.2q2.4,3.2,5.08,6.191a29.069,29.069,0,0,0,2.99-4.962,8.568,8.568,0,0,1,1.886-2.639,3.055,3.055,0,0,1,1.936-.563,2.684,2.684,0,0,1,1.88.633,2.551,2.551,0,0,1,.7,1.952,1.974,1.974,0,0,1-.491,1.372,1.614,1.614,0,0,1-1.322.58,1.476,1.476,0,0,1-1-.405,1.16,1.16,0,0,1-.527-0.969,3.177,3.177,0,0,1,.07-0.792,0.6,0.6,0,0,0-.616-0.687,1.242,1.242,0,0,0-.924.616,13.906,13.906,0,0,0-.975,1.691q-0.531,1.039-1.2,2.307a24.483,24.483,0,0,1-1.78,2.624,24.649,24.649,0,0,0,3.635,3.4,4.105,4.105,0,0,0,2.3,1,2.12,2.12,0,0,0,1.126-.282,2.65,2.65,0,0,0,.7-0.511,1.6,1.6,0,0,1,1.075-.757q0.273,0,.324.437a3.15,3.15,0,0,1-1.295,1.715,6.313,6.313,0,0,1-1.567.892,5.976,5.976,0,0,1-2.163.437,6.719,6.719,0,0,1-2.726-.72,11.63,11.63,0,0,1-3.56-2.882q-3.39,3.567-7.223,3.6a5.4,5.4,0,0,1-3.867-1.406,4.188,4.188,0,0,1-1.465-3.269h0Zm3.055-1.635a4.816,4.816,0,0,0,1.126,3.147,3.846,3.846,0,0,0,1.244,1.038,3.061,3.061,0,0,0,1.6.439,6.2,6.2,0,0,0,4.859-2.6,82.541,82.541,0,0,1-5.558-7.086q-3.274,2.04-3.274,5.064h0Zm2.535-14.9a8.3,8.3,0,0,0,.621,3.1,20.806,20.806,0,0,0,2.165,4,8.354,8.354,0,0,0,2.518-2.958,7.9,7.9,0,0,0,.655-3.17,5.492,5.492,0,0,0-.873-3.31,2.58,2.58,0,0,0-2.1-1.092,2.99,2.99,0,0,0-1.981.793,3.444,3.444,0,0,0-1.007,2.643h0ZM252.2,60.051q0,0.564-.422.563-0.454.053-.454-0.757a0.543,0.543,0,0,0-.63-0.6,1.739,1.739,0,0,0-.9.349q-0.512.332-1.3,0.82a3.626,3.626,0,0,1-.869.4,10.209,10.209,0,0,1-1.141.384,11.379,11.379,0,0,1-3.187.436q-6.237-.07-9.389-3.568a11.837,11.837,0,0,1-3.169-8.49q0.068-6.8,3.9-10.09a13.013,13.013,0,0,1,8.841-3.27,13.926,13.926,0,0,1,2.845.244,8.894,8.894,0,0,1,1.891.679,11.6,11.6,0,0,1,1.192.609,1.342,1.342,0,0,0,.733.331,0.462,0.462,0,0,0,.442-0.26,0.749,0.749,0,0,0,.188-0.382,0.547,0.547,0,0,1,.409-0.642,0.428,0.428,0,0,1,.392.509q0,1.351.136,2.755,0.135,1.44.136,2.913,0,0.826-.341.861a0.341,0.341,0,0,1-.324-0.246,4.374,4.374,0,0,1-.306-0.967,5.8,5.8,0,0,0-.563-1.708,6.933,6.933,0,0,0-1.363-1.831,7.275,7.275,0,0,0-2.2-1.514,8.13,8.13,0,0,0-3.2-.581,7.671,7.671,0,0,0-3,.616,7.352,7.352,0,0,0-2.727,2.1,11.077,11.077,0,0,0-1.993,3.891,20.487,20.487,0,0,0-.767,6.057,14.779,14.779,0,0,0,.835,5.3,9.515,9.515,0,0,0,2.1,3.469,8.148,8.148,0,0,0,2.795,1.866,7.323,7.323,0,0,0,2.76.581q3.63-.07,5.334-2.2a11.452,11.452,0,0,0,2.334-4.648q0.426-1.479.631-1.373a0.259,0.259,0,0,1,.3.211,3.256,3.256,0,0,1,.051.687v6.5Zm7.679-7.492a8.564,8.564,0,0,1,2.562-6.423,9.856,9.856,0,0,1,13.059,0,8.615,8.615,0,0,1,2.538,6.423,8.527,8.527,0,0,1-2.538,6.374,9.712,9.712,0,0,1-13.059,0,8.478,8.478,0,0,1-2.562-6.374h0Zm3.024,0a10.892,10.892,0,0,0,1.49,5.682,5.032,5.032,0,0,0,4.565,2.674,5.086,5.086,0,0,0,4.589-2.674,11.021,11.021,0,0,0,1.466-5.682,11.2,11.2,0,0,0-1.466-5.731,5.106,5.106,0,0,0-4.589-2.625,5.052,5.052,0,0,0-4.565,2.625,11.071,11.071,0,0,0-1.49,5.731h0Zm22.283,6.948a1.964,1.964,0,0,1,.63-1.463,1.836,1.836,0,0,1,1.363-.575,1.991,1.991,0,0,1,1.431.575,2.122,2.122,0,0,1,.545,1.463,1.953,1.953,0,0,1-.545,1.394,2.06,2.06,0,0,1-1.431.645,1.906,1.906,0,0,1-1.363-.645,1.817,1.817,0,0,1-.63-1.394h0Zm7.251-20.346a2.421,2.421,0,0,1,.7-1.749,2.34,2.34,0,0,1,3.379,0,2.532,2.532,0,0,1,0,3.491,2.325,2.325,0,0,1-3.379,0,2.428,2.428,0,0,1-.7-1.742h0Zm0.266,0a2.13,2.13,0,0,0,.63,1.538,2,2,0,0,0,1.5.653,2.029,2.029,0,0,0,1.5-.653,2.146,2.146,0,0,0,.62-1.537,2.19,2.19,0,0,0-.62-1.555,2.058,2.058,0,0,0-1.5-.636,2.032,2.032,0,0,0-1.5.636,2.173,2.173,0,0,0-.63,1.554h0Zm3.218,1.308a0.051,0.051,0,0,1-.054.062q-0.048.007-.048-0.082a0.068,0.068,0,0,0-.076-0.078,0.2,0.2,0,0,0-.109.044c-0.04.027-.09,0.059-0.149,0.1a0.82,0.82,0,0,1-.229.1,1.24,1.24,0,0,1-.374.048,1.359,1.359,0,0,1-1.471-1.411,1.447,1.447,0,0,1,1.491-1.568,1.165,1.165,0,0,1,.551.106,0.687,0.687,0,0,0,.225.109,0.081,0.081,0,0,0,.073-0.075,0.067,0.067,0,0,1,.05-0.072,0.047,0.047,0,0,1,.046.058,2.833,2.833,0,0,0,.02.328c0.009,0.112.013,0.225,0.013,0.342,0,0.066-.013.1-0.04,0.1s-0.056-.038-0.076-0.14a0.592,0.592,0,0,0-.06-0.2,1.124,1.124,0,0,0-.162-0.219,0.687,0.687,0,0,0-.259-0.174,0.926,0.926,0,0,0-.375-0.072,0.863,0.863,0,0,0-.67.325,1.7,1.7,0,0,0-.322,1.162,1.624,1.624,0,0,0,.1.615,1.165,1.165,0,0,0,.245.407,0.914,0.914,0,0,0,.643.294,0.848,0.848,0,0,0,.375-0.079,0.664,0.664,0,0,0,.252-0.181,1.444,1.444,0,0,0,.272-0.547,0.2,0.2,0,0,1,.074-0.16c0.032,0,.045.035,0.041,0.106v0.762Z" transform="translate(-0.344 -0.219)"/>
</svg>
