<svg xmlns="http://www.w3.org/2000/svg" width="459.625" height="26" viewBox="0 0 459.625 26">
  <defs>
    <style>
      .cls-1 {
        fill: #121212;
        fill-rule: evenodd;
      }
    </style>
  </defs>
  <path id="logo.r46_2x.svg" data-name="logo.r46@2x.svg" class="cls-1" d="M11.536,4.394H11.468L7.344,14.945h8.112Zm0.63-4.425h1.261l7.7,20.552a10.832,10.832,0,0,0,1.329,2.571,2.246,2.246,0,0,0,1.755,1q1.213,0.069,1.108.326a0.352,0.352,0,0,1-.1.343,1.315,1.315,0,0,1-.665.1q-2.131-.069-4.26-0.1-2.131.034-4.26,0.1-0.937.035-.9-0.447-0.068-.291,1.193-0.326,1.636-.071,1.6-1.447a10.175,10.175,0,0,0-.307-1.729,21.057,21.057,0,0,0-.784-2.24L15.83,15.927H6.969l-1.96,5.5a3.081,3.081,0,0,0-.17,1.076,1.206,1.206,0,0,0,.63,1.164,3.028,3.028,0,0,0,1.364.423q0.971,0.1.9,0.326a0.352,0.352,0,0,1-.1.343,1.119,1.119,0,0,1-.6.1Q5.4,24.8,3.765,24.765q-1.653.034-3.289,0.1-0.666,0-.63-0.447Q-0.225,24.2.578,24.1A3.651,3.651,0,0,0,1.7,23.778a3.2,3.2,0,0,0,1.006-.759,14.034,14.034,0,0,0,2.164-4.128Zm20.5,10.272a2,2,0,0,0-.418-1.079,2.437,2.437,0,0,0-1.42-.772q-0.86-.1-0.835-0.38,0-.245.346-0.221,0.561,0.025,2.007.074,1.027,0,2.054-.074L44.837,21.259h0.048V10.992a3.879,3.879,0,0,0-.334-1.948,1.786,1.786,0,0,0-1.23-.579,2.467,2.467,0,0,1-.68-0.2,0.189,0.189,0,0,1-.143-0.21q0-.27.466-0.27,1.146,0.025,2.292.074,1.146-.025,2.3-0.074,0.465,0,.466.271a0.239,0.239,0,0,1-.108.209,2.607,2.607,0,0,1-.73.2,1.628,1.628,0,0,0-1.172.579,3.365,3.365,0,0,0-.395,1.946V25.219H44.81L33.45,10.5H33.4V21.631a3.261,3.261,0,0,0,.394,1.9,1.549,1.549,0,0,0,1.17.629,3.921,3.921,0,0,1,.728.173,0.264,0.264,0,0,1,.107.234q0,0.271-.466.271-1.16-.048-2.307-0.072-1.148.024-2.3,0.072-0.466,0-.466-0.27a0.205,0.205,0,0,1,.143-0.234,3.819,3.819,0,0,1,.68-0.172,1.7,1.7,0,0,0,1.229-.626,3.609,3.609,0,0,0,.346-1.892V10.24Zm23.39,0.742a4.6,4.6,0,0,0-.335-2.073,1.294,1.294,0,0,0-1.21-.58,2.253,2.253,0,0,1-.707-0.1,0.143,0.143,0,0,1-.144-0.18q0-.264.454-0.264,1.4,0.025,3.216.074,1.853-.025,3.694-0.074a9.7,9.7,0,0,1,6.515,2.168,8.152,8.152,0,0,1,2.594,6.43A9.044,9.044,0,0,1,68.22,22.4q-1.984,2.39-6.443,2.439-1.972-.048-4.447-0.072-1.817.024-3.216,0.072-0.454,0-.454-0.265a0.2,0.2,0,0,1,.144-0.228A3.017,3.017,0,0,1,54.51,24.3a1.4,1.4,0,0,0,1.21-.629,4.448,4.448,0,0,0,.335-2.024V10.982ZM67.1,16.818a14.744,14.744,0,0,0-.582-4.393,5.8,5.8,0,0,0-1.555-2.554A5.027,5.027,0,0,0,62.949,8.65,9.737,9.737,0,0,0,60.8,8.4h-1.14a1.426,1.426,0,0,0-.8.148,0.824,0.824,0,0,0-.2.629v11.71q0,0.321.024,0.679,0,0.358.024,0.654a3.32,3.32,0,0,0,.131.555,1.682,1.682,0,0,0,.214.506,1.806,1.806,0,0,0,.926.654,4.165,4.165,0,0,0,1.721.284,5.36,5.36,0,0,0,2.9-.679,4.085,4.085,0,0,0,1.626-1.7,8.238,8.238,0,0,0,.736-2.394,24.046,24.046,0,0,0,.142-2.628h0Zm11.047-5.832a4.613,4.613,0,0,0-.335-2.076,1.292,1.292,0,0,0-1.209-.581,2.251,2.251,0,0,1-.706-0.1,0.147,0.147,0,0,1-.156-0.18q0-.264.467-0.264,1.4,0.025,3.218.074,2.154-.025,4.284-0.074a6.193,6.193,0,0,1,3.9,1.11,3.907,3.907,0,0,1,1.436,3.255,3.928,3.928,0,0,1-1.381,3.131,4.641,4.641,0,0,1-1.416.777,13,13,0,0,1-1.809.53q2.666,3.156,5.344,6.287a8.055,8.055,0,0,0,.928.814,3.067,3.067,0,0,0,.869.579q0.619,0.1.619,0.372,0,0.194-.416.194-0.3,0-.879-0.049-0.559-.025-1.093-0.025H88.009q-2.282-3.006-4.6-5.975a10.71,10.71,0,0,0-1.07-1.392,1.582,1.582,0,0,0-1.117-.406,0.4,0.4,0,0,0-.463.432v4.221a3.9,3.9,0,0,0,.391,2.024,1.289,1.289,0,0,0,1.137.63,3.5,3.5,0,0,1,.735.048,0.248,0.248,0,0,1,.118.228q0,0.264-.469.265-1.383-.048-3.223-0.072-1.828.024-3.235,0.072-0.469,0-.469-0.265a0.2,0.2,0,0,1,.156-0.228,3.01,3.01,0,0,1,.706-0.048,1.4,1.4,0,0,0,1.209-.63,4.451,4.451,0,0,0,.335-2.024V10.987Zm4.09-2.657q-1.481,0-1.481.531v7.515h1.114a5.2,5.2,0,0,0,3.376-.865,4.271,4.271,0,0,0,1.019-3.288,3.849,3.849,0,0,0-1.113-3.09,4.87,4.87,0,0,0-2.914-.8h0Zm16.651,2.658a4.618,4.618,0,0,0-.335-2.077,1.292,1.292,0,0,0-1.209-.581,2.251,2.251,0,0,1-.706-0.1,0.147,0.147,0,0,1-.156-0.18q0-.264.468-0.264,2.929,0.025,5.858.074,2.953-.025,5.775-0.074a0.312,0.312,0,0,1,.4.3V10.94q0,0.5-.275.48a0.357,0.357,0,0,1-.334-0.359,2.624,2.624,0,0,0-.931-2.127,5.487,5.487,0,0,0-2.935-.532H102.9a6.05,6.05,0,0,0-.907.049,0.876,0.876,0,0,0-.394.1,0.486,0.486,0,0,0-.1.284V15.7a5.962,5.962,0,0,0,2.566-.507,2.689,2.689,0,0,0,.978-0.816,2.211,2.211,0,0,0,.418-1.236,2.945,2.945,0,0,1,.119-0.7,0.26,0.26,0,0,1,.251-0.136,0.273,0.273,0,0,1,.31.308q-0.024,1.565-.071,3.155,0.023,1.565.071,3.155a0.248,0.248,0,0,1-.262.3,0.171,0.171,0,0,1-.2-0.148,3.082,3.082,0,0,1-.215-0.7,2.224,2.224,0,0,0-1.074-1.641,4.659,4.659,0,0,0-2.052-.407H101.5v4.653a7.644,7.644,0,0,0,.12,1.444,2.465,2.465,0,0,0,.489,1q0.669,0.815,3.079.815a7.953,7.953,0,0,0,1.134-.074,5.826,5.826,0,0,0,.9-0.148,4.111,4.111,0,0,0,1.325-.568,2.819,2.819,0,0,0,1.145-1.962q0.12-.716.418-0.691c0.127,0,.2.1,0.215,0.307q0,0.43-.048,1.18a12.1,12.1,0,0,0-.1,1.39v0.861a0.321,0.321,0,0,1-.4.32q-3.192-.048-6.407-0.072-3.192.024-6.419,0.072-0.468,0-.468-0.265a0.2,0.2,0,0,1,.156-0.228,3.014,3.014,0,0,1,.706-0.048,1.4,1.4,0,0,0,1.209-.629,4.451,4.451,0,0,0,.335-2.024V10.988Zm18.558-.61a4.328,4.328,0,0,0-.692-1.518,1.049,1.049,0,0,0-.883-0.358q-0.824-.024-0.8-0.4,0-.314.489-0.314,1.289,0.025,3.2.074,1.908-.025,2.911-0.074,0.583-.025.608,0.289a0.274,0.274,0,0,1-.167.277,2.206,2.206,0,0,1-.537.048,2.351,2.351,0,0,0-1.026.222,0.966,0.966,0,0,0-.489.938,2.6,2.6,0,0,0,.072.481q0.07,0.333.167,0.765,0.2,0.851.417,1.666l2.661,9.152h0.047L126.9,9.978q0.191-.627.346-1.255c0.079-.41.143-0.7,0.19-0.861h0.788l4.1,13.657h0.048l1.515-5.055q0.417-1.258.955-3.255a13.524,13.524,0,0,0,.584-3.008,2.3,2.3,0,0,0-.25-1.258,0.854,0.854,0,0,0-.49-0.382,5.636,5.636,0,0,0-1.121-.247,0.268,0.268,0,0,1-.215-0.308c-0.016-.129.064-0.2,0.239-0.217l2.589,0.074q1-.025,1.956-0.074,0.417,0,.441.271a0.245,0.245,0,0,1-.143.234,3.932,3.932,0,0,1-.739.222,1.526,1.526,0,0,0-.931.813,15.132,15.132,0,0,0-.537,1.429L134.5,16.584l-1.539,4.976-1.217,3.659H130.93q-2.076-6.988-3.889-13.027h-0.048q-1.873,6.545-4.008,13.027h-0.823Zm36.544-5.3a6.568,6.568,0,0,0-.479-2.961,1.847,1.847,0,0,0-1.727-.828,3.218,3.218,0,0,1-1.009-.137,0.211,0.211,0,0,1-.222-0.258c0-.252.222-0.378,0.664-0.378q1.293,0.035,2.588.106,1.293-.035,2.57-0.106h0.6a0.6,0.6,0,0,1,.63.352l7.678,18.471,7.592-18.29a0.636,0.636,0,0,1,.606-0.532q1.453,0.035,2.907.106,1.453-.035,2.907-0.106,0.675,0,.675.378a0.224,0.224,0,0,1-.188.257,3.651,3.651,0,0,1-1.043.137,1.7,1.7,0,0,0-1.642.828,5.687,5.687,0,0,0-.565,2.961v15.23A5.505,5.505,0,0,0,177.1,23.2a1.838,1.838,0,0,0,1.642.9,4.823,4.823,0,0,1,1.043.069,0.345,0.345,0,0,1,.188.326q0,0.378-.671.378-1.98-.069-4.612-0.1-2.616.034-4.63,0.1-0.67,0-.671-0.378a0.288,0.288,0,0,1,.221-0.326,4.259,4.259,0,0,1,1-.069,1.942,1.942,0,0,0,1.7-.9,6.168,6.168,0,0,0,.5-2.891V4.046h-0.071L164.3,24.289a0.509,0.509,0,0,1-.374.474,0.544,0.544,0,0,1-.46-0.44L155.114,3.666h-0.068v16.64a5.682,5.682,0,0,0,.545,2.891,1.866,1.866,0,0,0,1.65.9,4.774,4.774,0,0,1,1.037.069,0.354,0.354,0,0,1,.17.326q0,0.378-.664.378-1.636-.069-3.273-0.1-1.637.034-3.289,0.1-0.665,0-.665-0.378a0.29,0.29,0,0,1,.222-0.326,4.3,4.3,0,0,1,1.009-.069,2,2,0,0,0,1.727-.9,6.356,6.356,0,0,0,.479-2.891V5.076Zm38.18,4.8c0,0.153-.058.23-0.172,0.23s-0.186-.089-0.186-0.309a0.222,0.222,0,0,0-.258-0.244,0.71,0.71,0,0,0-.369.143q-0.208.136-.529,0.335a1.466,1.466,0,0,1-.355.164,4.122,4.122,0,0,1-.466.157,4.646,4.646,0,0,1-1.3.178A4.982,4.982,0,0,1,184.7,9.067,4.837,4.837,0,0,1,183.407,5.6,5.208,5.208,0,0,1,185,1.476,5.318,5.318,0,0,1,188.612.14a5.678,5.678,0,0,1,1.162.1,3.633,3.633,0,0,1,.773.277,4.729,4.729,0,0,1,.487.249,0.549,0.549,0,0,0,.3.135A0.189,0.189,0,0,0,191.514.8a0.3,0.3,0,0,0,.077-0.156,0.223,0.223,0,0,1,.167-0.262,0.174,0.174,0,0,1,.16.208q0,0.552.056,1.126t0.055,1.19c0,0.225-.046.342-0.139,0.352a0.139,0.139,0,0,1-.132-0.1,1.788,1.788,0,0,1-.125-0.4,2.378,2.378,0,0,0-.23-0.7,2.854,2.854,0,0,0-.557-0.748,2.977,2.977,0,0,0-.9-0.619,3.325,3.325,0,0,0-1.309-.237,3.13,3.13,0,0,0-1.225.252,2.99,2.99,0,0,0-1.114.856,4.509,4.509,0,0,0-.815,1.59,8.377,8.377,0,0,0-.313,2.474,6.028,6.028,0,0,0,.341,2.165,3.9,3.9,0,0,0,.856,1.417,3.338,3.338,0,0,0,1.142.762,3,3,0,0,0,1.128.237,2.694,2.694,0,0,0,2.179-.9,4.686,4.686,0,0,0,.954-1.9,0.8,0.8,0,0,1,.257-0.561,0.105,0.105,0,0,1,.124.086,1.32,1.32,0,0,1,.021.281V9.871Zm6.761-5.659a6.155,6.155,0,0,0-.989-2.168,1.5,1.5,0,0,0-1.261-.511q-1.176-.035-1.141-0.57c0-.3.232-0.449,0.7-0.449q1.84,0.035,4.568.106,2.726-.035,4.158-0.106,0.834-.035.869,0.413a0.391,0.391,0,0,1-.239.4,3.151,3.151,0,0,1-.767.069,3.356,3.356,0,0,0-1.465.317,1.38,1.38,0,0,0-.7,1.34,3.743,3.743,0,0,0,.1.687q0.1,0.476.239,1.093,0.289,1.216.6,2.379l3.8,13.075h0.068l4.959-16.642q0.273-.9.494-1.792,0.171-.878.273-1.23h1.125l5.862,19.51h0.068l2.164-7.222q0.6-1.8,1.364-4.65a19.273,19.273,0,0,0,.835-4.3,3.285,3.285,0,0,0-.358-1.8,1.213,1.213,0,0,0-.7-0.546,8.049,8.049,0,0,0-1.6-.352,0.382,0.382,0,0,1-.306-0.44q-0.034-.276.34-0.31l3.7,0.106q1.433-.035,2.8-0.106,0.6,0,.631.387a0.351,0.351,0,0,1-.205.334,5.6,5.6,0,0,1-1.056.317,2.175,2.175,0,0,0-1.329,1.161,21.419,21.419,0,0,0-.767,2.041l-2.471,8.323-2.2,7.109-1.738,5.226h-1.159q-2.966-9.983-5.555-18.61h-0.069q-2.676,9.349-5.726,18.61h-1.176ZM235.183,10.5h-0.047l-2.887,7.386h5.678Zm0.442-3.1h0.883L241.9,21.793a7.58,7.58,0,0,0,.93,1.8,1.573,1.573,0,0,0,1.229.7q0.849,0.048.775,0.228a0.248,0.248,0,0,1-.071.24,0.923,0.923,0,0,1-.466.072q-1.491-.048-2.982-0.072-1.491.024-2.982,0.072-0.657.025-.633-0.313-0.048-.2.836-0.228a0.96,0.96,0,0,0,1.121-1.013,7.156,7.156,0,0,0-.215-1.21,14.6,14.6,0,0,0-.549-1.568l-0.7-1.927h-6.2l-1.372,3.853a2.173,2.173,0,0,0-.119.753,0.844,0.844,0,0,0,.441.815,2.124,2.124,0,0,0,.955.3q0.679,0.072.632,0.228a0.248,0.248,0,0,1-.071.24,0.785,0.785,0,0,1-.418.072q-1.146-.048-2.29-0.072-1.158.024-2.3,0.072c-0.31,0-.458-0.1-0.441-0.313q-0.049-.156.513-0.228a2.563,2.563,0,0,0,.787-0.222,2.234,2.234,0,0,0,.7-0.531,9.835,9.835,0,0,0,1.515-2.89Zm18.731,1.552a0.743,0.743,0,0,0-.048-0.271,0.994,0.994,0,0,0-.466-0.136q-0.633-.074-3.249-0.074a4.669,4.669,0,0,0-2.149.382,1.656,1.656,0,0,0-.669.654,2.913,2.913,0,0,0-.335,1.16,2.188,2.188,0,0,1-.107.74,0.267,0.267,0,0,1-.263.148c-0.135,0-.2-0.111-0.2-0.332V8.163a0.352,0.352,0,0,1,.419-0.375H264.03a0.354,0.354,0,0,1,.419.381v3.06c0,0.221-.068.332-0.2,0.332a0.192,0.192,0,0,1-.215-0.148,2.1,2.1,0,0,1-.143-0.74,3.09,3.09,0,0,0-.274-1.16,1.524,1.524,0,0,0-.7-0.654,4.892,4.892,0,0,0-2.184-.382q-2.591,0-3.223.074a0.937,0.937,0,0,0-.442.136,0.437,0.437,0,0,0-.1.271V21.643a3.865,3.865,0,0,0,.394,2.023,1.3,1.3,0,0,0,1.146.629,3.546,3.546,0,0,1,.74.048,0.248,0.248,0,0,1,.119.228c0,0.176-.156.265-0.47,0.265q-1.386-.048-3.23-0.072-1.831.024-3.242,0.072-0.469,0-.47-0.265a0.2,0.2,0,0,1,.155-0.228,3.01,3.01,0,0,1,.706-0.048,1.367,1.367,0,0,0,1.2-.629,4.318,4.318,0,0,0,.347-2.024V8.958Zm22.145,0a0.765,0.765,0,0,0-.047-0.271,0.994,0.994,0,0,0-.466-0.136q-0.633-.074-3.249-0.074a4.671,4.671,0,0,0-2.15.382,1.656,1.656,0,0,0-.669.654,2.914,2.914,0,0,0-.334,1.16,2.179,2.179,0,0,1-.108.74,0.266,0.266,0,0,1-.262.148q-0.2,0-.2-0.332V8.163a0.352,0.352,0,0,1,.42-0.375h16.743a0.354,0.354,0,0,1,.419.381v3.06c0,0.221-.067.332-0.2,0.332a0.191,0.191,0,0,1-.215-0.148,2.1,2.1,0,0,1-.144-0.74,3.09,3.09,0,0,0-.274-1.16,1.522,1.522,0,0,0-.7-0.654,4.894,4.894,0,0,0-2.185-.382q-2.591,0-3.222.074a0.933,0.933,0,0,0-.442.136,0.432,0.432,0,0,0-.1.271V21.643a3.875,3.875,0,0,0,.394,2.023,1.3,1.3,0,0,0,1.146.629,3.546,3.546,0,0,1,.74.048,0.247,0.247,0,0,1,.12.228q0,0.264-.47.265-1.387-.048-3.231-0.072-1.832.024-3.242,0.072-0.469,0-.47-0.265a0.2,0.2,0,0,1,.156-0.228,3,3,0,0,1,.705-0.048,1.366,1.366,0,0,0,1.2-.629,4.306,4.306,0,0,0,.347-2.024V8.958Zm17.576,2.029a4.621,4.621,0,0,0-.335-2.077,1.294,1.294,0,0,0-1.209-.581,2.246,2.246,0,0,1-.706-0.1,0.148,0.148,0,0,1-.156-0.18q0-.264.469-0.264,2.928,0.025,5.858.074,2.954-.025,5.774-0.074a0.312,0.312,0,0,1,.4.3V10.94q0,0.5-.274.48a0.356,0.356,0,0,1-.334-0.359,2.627,2.627,0,0,0-.931-2.127,5.491,5.491,0,0,0-2.936-.532h-1.611a6.059,6.059,0,0,0-.907.049,0.88,0.88,0,0,0-.394.1,0.491,0.491,0,0,0-.1.284V15.7a5.955,5.955,0,0,0,2.565-.507,2.7,2.7,0,0,0,.979-0.816,2.211,2.211,0,0,0,.417-1.236,2.878,2.878,0,0,1,.12-0.7,0.259,0.259,0,0,1,.25-0.136,0.274,0.274,0,0,1,.311.308q-0.024,1.565-.072,3.155,0.024,1.565.072,3.155a0.248,0.248,0,0,1-.263.3,0.172,0.172,0,0,1-.2-0.148,3.19,3.19,0,0,1-.215-0.7,2.224,2.224,0,0,0-1.074-1.641,4.653,4.653,0,0,0-2.052-.407h-0.835v4.653a7.65,7.65,0,0,0,.119,1.444,2.491,2.491,0,0,0,.489,1q0.669,0.815,3.08.815a7.948,7.948,0,0,0,1.133-.074A5.805,5.805,0,0,0,302.4,24a4.1,4.1,0,0,0,1.325-.568,2.824,2.824,0,0,0,1.146-1.962q0.118-.716.417-0.691c0.128,0,.2.1,0.215,0.307q0,0.43-.048,1.18a12.1,12.1,0,0,0-.1,1.39v0.861a0.321,0.321,0,0,1-.4.32q-3.19-.048-6.407-0.072-3.192.024-6.419,0.072-0.468,0-.468-0.265a0.2,0.2,0,0,1,.156-0.228,3.009,3.009,0,0,1,.706-0.048,1.4,1.4,0,0,0,1.209-.629,4.454,4.454,0,0,0,.335-2.024V10.988Zm19.349,0a4.617,4.617,0,0,0-.335-2.076,1.292,1.292,0,0,0-1.209-.581,2.252,2.252,0,0,1-.706-0.1,0.148,0.148,0,0,1-.156-0.18q0-.264.467-0.264,1.4,0.025,3.218.074,2.154-.025,4.284-0.074a6.191,6.191,0,0,1,3.9,1.11,3.907,3.907,0,0,1,1.436,3.255,3.927,3.927,0,0,1-1.38,3.131,4.639,4.639,0,0,1-1.417.777,12.945,12.945,0,0,1-1.809.53q2.667,3.156,5.344,6.287a8.085,8.085,0,0,0,.928.814,3.078,3.078,0,0,0,.869.579q0.62,0.1.619,0.372,0,0.194-.416.194-0.3,0-.879-0.049c-0.373-.017-0.737-0.025-1.094-0.025h-1.806q-2.282-3.006-4.6-5.975a10.714,10.714,0,0,0-1.069-1.392,1.584,1.584,0,0,0-1.117-.406,0.4,0.4,0,0,0-.464.432v4.221a3.892,3.892,0,0,0,.391,2.024,1.289,1.289,0,0,0,1.137.63,3.507,3.507,0,0,1,.735.048,0.247,0.247,0,0,1,.118.228q0,0.264-.469.265-1.383-.048-3.223-0.072-1.827.024-3.235,0.072c-0.312,0-.469-0.088-0.469-0.265a0.2,0.2,0,0,1,.156-0.228,3.01,3.01,0,0,1,.706-0.048,1.4,1.4,0,0,0,1.209-.63,4.456,4.456,0,0,0,.335-2.024V10.987Zm4.09-2.657q-1.481,0-1.481.531v7.515h1.114a5.2,5.2,0,0,0,3.376-.865,4.271,4.271,0,0,0,1.019-3.288,3.851,3.851,0,0,0-1.114-3.09,4.869,4.869,0,0,0-2.914-.8h0Zm14.091,11.746a0.349,0.349,0,0,1,.347-0.432c0.222,0,.342.161,0.358,0.481a6.7,6.7,0,0,0,.369,1.11,6.169,6.169,0,0,0,.787,1.518,4.728,4.728,0,0,0,1.42,1.271,3.513,3.513,0,0,0,2.075.58,3.676,3.676,0,0,0,2.826-1.06,3.327,3.327,0,0,0,.907-2.33,3.521,3.521,0,0,0-.346-1.615,3.016,3.016,0,0,0-1-1.11,7.021,7.021,0,0,0-1.36-.863q-0.786-.345-1.6-0.678-0.8-.382-1.562-0.777a7.488,7.488,0,0,1-1.383-.962,5.12,5.12,0,0,1-.978-1.368,4.224,4.224,0,0,1-.394-1.886,4.006,4.006,0,0,1,1.657-3.489,5.743,5.743,0,0,1,3.326-1.06,6.867,6.867,0,0,1,1.561.146,3.325,3.325,0,0,1,.954.4q0.381,0.207.655,0.377a0.991,0.991,0,0,0,.584.195,0.3,0.3,0,0,0,.25-0.17,1.19,1.19,0,0,0,.12-0.3,0.44,0.44,0,0,1,.238-0.45q0.3,0,.3.43,0.024,1.844.072,3.627,0,0.505-.263.505A0.368,0.368,0,0,1,341.3,11.9a3.46,3.46,0,0,1-.262-0.641,4.549,4.549,0,0,0-1.54-2.418,3.941,3.941,0,0,0-2.375-.814,3.187,3.187,0,0,0-2.148.764,2.47,2.47,0,0,0-.907,1.96,2.727,2.727,0,0,0,1.419,2.453,10.54,10.54,0,0,0,1.443.814q0.775,0.37,1.634.752a10.813,10.813,0,0,1,3.1,1.874,4.413,4.413,0,0,1,1,1.455,5.252,5.252,0,0,1,.37,2.071,4.494,4.494,0,0,1-1.787,3.76,6.889,6.889,0,0,1-4.289,1.294,5.988,5.988,0,0,1-1.692-.257,6.648,6.648,0,0,1-1.215-.5,9.5,9.5,0,0,1-.834-0.525,1.108,1.108,0,0,0-.584-0.2,0.215,0.215,0,0,0-.191.123c-0.047.09-.1,0.185-0.155,0.284a1.372,1.372,0,0,1-.119.271,0.276,0.276,0,0,1-.238.16,0.241,0.241,0,0,1-.227-0.185,0.467,0.467,0,0,1-.1-0.3V20.076Zm23.912,0.658a5.6,5.6,0,0,1,1.159-3.5A20.418,20.418,0,0,1,361.5,13.2q-2.463-3.748-2.463-6.6a6.633,6.633,0,0,1,1.87-5.05,5.4,5.4,0,0,1,3.722-1.583A4.752,4.752,0,0,1,368.018,1.2a4.523,4.523,0,0,1,1.347,3.416A9.413,9.413,0,0,1,369.23,6.2a5.4,5.4,0,0,1-.657,1.708,16.177,16.177,0,0,1-4.047,4.208q2.4,3.2,5.086,6.2a29.112,29.112,0,0,0,2.993-4.967,8.559,8.559,0,0,1,1.888-2.642,3.058,3.058,0,0,1,1.938-.564,2.686,2.686,0,0,1,1.882.634,2.552,2.552,0,0,1,.695,1.954,1.973,1.973,0,0,1-.491,1.373,1.615,1.615,0,0,1-1.323.581,1.476,1.476,0,0,1-1-.405,1.163,1.163,0,0,1-.528-0.969,3.185,3.185,0,0,1,.07-0.793,0.6,0.6,0,0,0-.616-0.688,1.241,1.241,0,0,0-.925.617,13.775,13.775,0,0,0-.976,1.692q-0.531,1.04-1.2,2.309a24.521,24.521,0,0,1-1.781,2.627,24.645,24.645,0,0,0,3.638,3.4,4.113,4.113,0,0,0,2.306,1,2.126,2.126,0,0,0,1.128-.282,2.671,2.671,0,0,0,.7-0.511,1.6,1.6,0,0,1,1.076-.758q0.273,0,.324.438a3.151,3.151,0,0,1-1.3,1.717,6.326,6.326,0,0,1-1.569.893,5.989,5.989,0,0,1-2.166.438,6.726,6.726,0,0,1-2.728-.721,11.642,11.642,0,0,1-3.564-2.885q-3.395,3.571-7.231,3.606a5.407,5.407,0,0,1-3.871-1.408,4.19,4.19,0,0,1-1.467-3.273h0Zm3.059-1.637a4.821,4.821,0,0,0,1.127,3.151,3.852,3.852,0,0,0,1.245,1.039,3.068,3.068,0,0,0,1.605.44,6.207,6.207,0,0,0,4.864-2.605,82.814,82.814,0,0,1-5.564-7.094q-3.278,2.042-3.277,5.069h0ZM361.115,4.18a8.335,8.335,0,0,0,.622,3.1,20.867,20.867,0,0,0,2.168,4,8.358,8.358,0,0,0,2.52-2.962,7.914,7.914,0,0,0,.656-3.173,5.5,5.5,0,0,0-.874-3.314,2.583,2.583,0,0,0-2.1-1.093,2.993,2.993,0,0,0-1.983.794,3.45,3.45,0,0,0-1.009,2.646h0Zm53.44,19.633q0,0.564-.422.564-0.454.053-.455-0.758a0.544,0.544,0,0,0-.631-0.6,1.737,1.737,0,0,0-.9.349q-0.511.332-1.3,0.821a3.653,3.653,0,0,1-.87.4,10.246,10.246,0,0,1-1.143.384,11.389,11.389,0,0,1-3.19.437q-6.243-.07-9.4-3.572a11.847,11.847,0,0,1-3.173-8.5q0.067-6.81,3.9-10.1a13.028,13.028,0,0,1,8.851-3.273,13.942,13.942,0,0,1,2.848.244,8.891,8.891,0,0,1,1.893.68,11.608,11.608,0,0,1,1.193.61,1.347,1.347,0,0,0,.734.331,0.464,0.464,0,0,0,.443-0.26,0.758,0.758,0,0,0,.188-0.382,0.547,0.547,0,0,1,.409-0.642,0.428,0.428,0,0,1,.392.51q0,1.353.137,2.758,0.135,1.441.136,2.916,0,0.827-.341.862a0.341,0.341,0,0,1-.324-0.246,4.368,4.368,0,0,1-.307-0.968,5.815,5.815,0,0,0-.563-1.709A6.95,6.95,0,0,0,411.3,2.838a7.29,7.29,0,0,0-2.2-1.516,8.138,8.138,0,0,0-3.207-.582,7.676,7.676,0,0,0-3,.617,7.345,7.345,0,0,0-2.73,2.1,11.078,11.078,0,0,0-2,3.9,20.53,20.53,0,0,0-.767,6.063,14.81,14.81,0,0,0,.835,5.305,9.531,9.531,0,0,0,2.1,3.472,8.158,8.158,0,0,0,2.8,1.868,7.331,7.331,0,0,0,2.763.582q3.635-.07,5.34-2.2a11.474,11.474,0,0,0,2.337-4.653Q414,16.3,414.2,16.41a0.258,0.258,0,0,1,.3.212,3.263,3.263,0,0,1,.051.687v6.5Zm7.687-7.5a8.58,8.58,0,0,1,2.565-6.43,9.867,9.867,0,0,1,13.074,0,8.623,8.623,0,0,1,2.541,6.43,8.536,8.536,0,0,1-2.541,6.381,9.724,9.724,0,0,1-13.074,0,8.494,8.494,0,0,1-2.565-6.381h0Zm3.028,0A10.905,10.905,0,0,0,426.762,22a5.037,5.037,0,0,0,4.57,2.677A5.092,5.092,0,0,0,435.926,22a11.043,11.043,0,0,0,1.468-5.688,11.225,11.225,0,0,0-1.468-5.737,5.112,5.112,0,0,0-4.594-2.628,5.057,5.057,0,0,0-4.57,2.628,11.084,11.084,0,0,0-1.492,5.737h0Zm22.307,6.955a1.965,1.965,0,0,1,.631-1.465,1.837,1.837,0,0,1,1.364-.576,1.992,1.992,0,0,1,1.433.576,2.122,2.122,0,0,1,.546,1.465,1.953,1.953,0,0,1-.546,1.4,2.062,2.062,0,0,1-1.433.645,1.908,1.908,0,0,1-1.364-.645,1.818,1.818,0,0,1-.631-1.4h0ZM454.836,2.9a2.422,2.422,0,0,1,.706-1.751,2.343,2.343,0,0,1,3.383,0,2.432,2.432,0,0,1,.7,1.751,2.439,2.439,0,0,1-.7,1.744,2.328,2.328,0,0,1-3.383,0,2.429,2.429,0,0,1-.706-1.744h0Zm0.266,0a2.135,2.135,0,0,0,.631,1.539,2.006,2.006,0,0,0,1.5.653,2.033,2.033,0,0,0,1.507-.653,2.149,2.149,0,0,0,.62-1.539,2.194,2.194,0,0,0-.62-1.556A2.061,2.061,0,0,0,457.23.707a2.033,2.033,0,0,0-1.5.636A2.178,2.178,0,0,0,455.1,2.9h0Zm3.222,1.31a0.051,0.051,0,0,1-.054.062q-0.048.007-.048-0.082a0.069,0.069,0,0,0-.076-0.079,0.2,0.2,0,0,0-.11.044c-0.04.027-.089,0.059-0.149,0.1a0.809,0.809,0,0,1-.229.1,1.241,1.241,0,0,1-.375.048,1.418,1.418,0,0,1-1.1-.421,1.412,1.412,0,0,1-.371-0.992,1.488,1.488,0,0,1,.461-1.187,1.5,1.5,0,0,1,1.032-.383,1.162,1.162,0,0,1,.551.106,0.69,0.69,0,0,0,.226.109,0.081,0.081,0,0,0,.073-0.075,0.067,0.067,0,0,1,.05-0.072,0.047,0.047,0,0,1,.046.058,2.841,2.841,0,0,0,.02.328c0.009,0.112.013,0.226,0.013,0.342,0,0.066-.013.1-0.04,0.1s-0.056-.038-0.076-0.14a0.643,0.643,0,0,0-.06-0.2,1.093,1.093,0,0,0-.163-0.219,0.679,0.679,0,0,0-.259-0.174A0.921,0.921,0,0,0,457.31,1.5a0.865,0.865,0,0,0-.671.325,1.7,1.7,0,0,0-.322,1.163,1.649,1.649,0,0,0,.1.616,1.183,1.183,0,0,0,.246.407,0.914,0.914,0,0,0,.644.294,0.848,0.848,0,0,0,.375-0.079,0.649,0.649,0,0,0,.252-0.181,1.435,1.435,0,0,0,.273-0.547,0.2,0.2,0,0,1,.074-0.161c0.032,0,.045.035,0.041,0.106V4.209ZM183.2,14.251v-1h9.51v1H183.2Z"/>
</svg>
